<?xml version="1.0" encoding="UTF-8" standalone="no"?>
<!-- Created with Inkscape (http://www.inkscape.org/) -->

<svg
   xmlns:dc="http://purl.org/dc/elements/1.1/"
   xmlns:cc="http://creativecommons.org/ns#"
   xmlns:rdf="http://www.w3.org/1999/02/22-rdf-syntax-ns#"
   xmlns:svg="http://www.w3.org/2000/svg"
   xmlns="http://www.w3.org/2000/svg"
   xmlns:xlink="http://www.w3.org/1999/xlink"
   xmlns:sodipodi="http://sodipodi.sourceforge.net/DTD/sodipodi-0.dtd"
   xmlns:inkscape="http://www.inkscape.org/namespaces/inkscape"
   width="48px"
   height="48px"
   id="svg1307"
   sodipodi:version="0.32"
   inkscape:version="0.48.1 r9760"
   sodipodi:docname="Available.svg"
   version="1.1">
  <defs
     id="defs1309">
    <linearGradient
       id="linearGradient5940">
      <stop
         style="stop-color:#9db029;stop-opacity:1;"
         offset="0"
         id="stop5942" />
      <stop
         style="stop-color:#9db029;stop-opacity:0;"
         offset="1"
         id="stop5944" />
    </linearGradient>
    <linearGradient
       inkscape:collect="always"
       id="linearGradient3558">
      <stop
         style="stop-color:#000000;stop-opacity:1;"
         offset="0"
         id="stop3560" />
      <stop
         style="stop-color:#000000;stop-opacity:0;"
         offset="1"
         id="stop3562" />
    </linearGradient>
    <radialGradient
       inkscape:collect="always"
       xlink:href="#linearGradient3558"
       id="radialGradient3564"
       cx="22.571428"
       cy="34.193878"
       fx="22.571428"
       fy="34.193878"
       r="15.571428"
       gradientTransform="matrix(1.000000,-9.124409e-15,3.212315e-16,0.571617,-0.814760,10.06937)"
       gradientUnits="userSpaceOnUse" />
    <linearGradient
       inkscape:collect="always"
       id="linearGradient4960">
      <stop
         style="stop-color:#ffffff;stop-opacity:1;"
         offset="0"
         id="stop4962" />
      <stop
         style="stop-color:#ffffff;stop-opacity:0;"
         offset="1"
         id="stop4964" />
    </linearGradient>
    <linearGradient
       id="linearGradient4069">
      <stop
         style="stop-color:#549a10;stop-opacity:1.0000000"
         offset="0"
         id="stop4071" />
      <stop
         style="stop-color:#8ae234"
         offset="1"
         id="stop4073" />
    </linearGradient>
    <linearGradient
       inkscape:collect="always"
       xlink:href="#linearGradient4069"
       id="linearGradient4075"
       x1="35.392464"
       y1="39.277515"
       x2="14.344166"
       y2="16.68527"
       gradientUnits="userSpaceOnUse" />
    <linearGradient
       inkscape:collect="always"
       xlink:href="#linearGradient4960"
       id="linearGradient4966"
       x1="16.461405"
       y1="15.329672"
       x2="35.404129"
       y2="43.029778"
       gradientUnits="userSpaceOnUse" />
    <radialGradient
       inkscape:collect="always"
       xlink:href="#linearGradient3558"
       id="radialGradient3005"
       gradientUnits="userSpaceOnUse"
       gradientTransform="matrix(1,0,0,0.571617,-0.81476,10.06937)"
       cx="22.571428"
       cy="34.193878"
       fx="22.571428"
       fy="34.193878"
       r="15.571428" />
    <linearGradient
       inkscape:collect="always"
       xlink:href="#linearGradient4069"
       id="linearGradient3007"
       gradientUnits="userSpaceOnUse"
       x1="35.392464"
       y1="39.277515"
       x2="14.344166"
       y2="16.68527" />
    <linearGradient
       inkscape:collect="always"
       xlink:href="#linearGradient4960"
       id="linearGradient3009"
       gradientUnits="userSpaceOnUse"
       x1="16.461405"
       y1="15.329672"
       x2="35.404129"
       y2="43.029778" />
    <linearGradient
       inkscape:collect="always"
       xlink:href="#linearGradient4960"
       id="linearGradient3927"
       gradientUnits="userSpaceOnUse"
       x1="16.461405"
       y1="15.329672"
       x2="35.404129"
       y2="43.029778"
       gradientTransform="matrix(-0.89361721,0,0,0.89361721,46.137268,2.1063826)" />
    <linearGradient
       inkscape:collect="always"
       xlink:href="#linearGradient4069"
       id="linearGradient3930"
       gradientUnits="userSpaceOnUse"
       x1="35.392464"
       y1="39.277515"
       x2="14.344166"
       y2="16.68527"
       gradientTransform="matrix(-0.89361721,0,0,0.89361721,46.137268,2.1063826)" />
  </defs>
  <sodipodi:namedview
     id="base"
     pagecolor="#ffffff"
     bordercolor="#666666"
     borderopacity="1.0"
     inkscape:pageopacity="0.0"
     inkscape:pageshadow="2"
     inkscape:zoom="9.8994949"
     inkscape:cx="30.388922"
     inkscape:cy="33.230437"
     inkscape:current-layer="layer1"
     showgrid="false"
     inkscape:grid-bbox="true"
     inkscape:document-units="px"
     stroke="#4e9a06"
     fill="#73d216"
     inkscape:window-width="1270"
     inkscape:window-height="945"
     inkscape:window-x="21"
     inkscape:window-y="25"
     inkscape:window-maximized="0" />
  <metadata
     id="metadata1312">
    <rdf:RDF>
      <cc:Work
         rdf:about="">
        <dc:format>image/svg+xml</dc:format>
        <dc:type
           rdf:resource="http://purl.org/dc/dcmitype/StillImage" />
        <dc:title>Extension</dc:title>
        <dc:creator>
          <cc:Agent>
            <dc:title>Andreas Nilsson</dc:title>
          </cc:Agent>
        </dc:creator>
        <dc:source>http://tango-project.org</dc:source>
        <dc:subject>
          <rdf:Bag>
            <rdf:li>extention</rdf:li>
            <rdf:li>addon</rdf:li>
            <rdf:li>plugin</rdf:li>
            <rdf:li>puzzle</rdf:li>
          </rdf:Bag>
        </dc:subject>
        <cc:license
           rdf:resource="http://creativecommons.org/licenses/by-sa/2.0/" />
      </cc:Work>
      <cc:License
         rdf:about="http://creativecommons.org/licenses/by-sa/2.0/">
        <cc:permits
           rdf:resource="http://web.resource.org/cc/Reproduction" />
        <cc:permits
           rdf:resource="http://web.resource.org/cc/Distribution" />
        <cc:requires
           rdf:resource="http://web.resource.org/cc/Notice" />
        <cc:requires
           rdf:resource="http://web.resource.org/cc/Attribution" />
        <cc:permits
           rdf:resource="http://web.resource.org/cc/DerivativeWorks" />
        <cc:requires
           rdf:resource="http://web.resource.org/cc/ShareAlike" />
      </cc:License>
    </rdf:RDF>
  </metadata>
  <g
     id="layer1"
     inkscape:label="Layer 1"
     inkscape:groupmode="layer">
    <path
       inkscape:connector-curvature="0"
       style="fill:url(#linearGradient3930);fill-opacity:1;fill-rule:evenodd;stroke:#428404;stroke-width:0.89361668;stroke-linecap:round;stroke-linejoin:round;stroke-miterlimit:4;stroke-opacity:1;stroke-dasharray:none;stroke-dashoffset:0"
       d="m 31.40295,6.1635722 c 0.0604,1.1717 -1.870975,3.0861823 -1.87899,4.1648948 -0.0034,0.458329 0.07245,1.641871 0.25133,2.054522 l 7.902927,0 0.02257,9.862056 c 3.375354,-0.05852 4.114381,-1.378591 6.233105,-0.850398 1.353917,1.446025 1.544354,7.064239 -2.6453,7.08851 -1.547036,0.02985 -2.577299,-0.899649 -3.610373,-0.921543 l 0,13.433083 -9.853725,-0.03191 c -0.153413,-1.414921 1.839261,-4.247259 1.807181,-6.075799 -0.06337,-4.182239 -8.972783,-5.606198 -8.960108,0 -0.06337,2.628492 1.68547,1.884829 1.788798,6.107713 -0.338218,0 -6.637203,0 -9.990927,0 0,0 0.03927,-12.12227 0.02847,-12.440124 -0.09027,-2.702333 -3.017986,0.70682 -5.349459,0.763572 -3.173816,-0.08112 -4.008523,-7.951812 0.0052,-8.050024 1.854638,0.100493 2.992548,1.276614 5.339253,1.207955 l 0.0085,-10.093087 10.835108,0 C 23.3806,10.95123 21.565938,7.9891939 21.597126,6.2114455 c 0.03317,-2.1891403 2.070908,-2.7671008 4.587767,-2.7646282 3.263028,0.00317 5.223938,0.821048 5.218086,2.7167559 z"
       id="rect1315"
       sodipodi:nodetypes="csccccccccccccsccccccsc" />
    <path
       inkscape:connector-curvature="0"
       style="opacity:0.7;fill:none;stroke:url(#linearGradient3927);stroke-width:0.89361709;stroke-linecap:round;stroke-linejoin:round;stroke-miterlimit:4;stroke-opacity:1;stroke-dasharray:none;stroke-dashoffset:0"
       d="m 30.502681,6.15792 c -0.06978,1.2983497 -1.984719,2.1662865 -1.978796,4.838216 9.3e-5,0.04175 0.510753,2.23764 0.591909,2.272 l 7.586411,0.01596 -0.01209,9.758546 c 4.176031,0.358807 3.384226,-0.714698 6.611368,-0.942584 0.75488,1.353783 1.177868,5.445608 -2.092279,5.468867 -1.189121,0.07373 -2.296319,-0.929819 -4.482358,-0.883098 l -0.06421,13.39672 c -3.347885,-0.0102 -5.893208,0.02474 -7.777308,0.01455 0.188094,-1.004828 1.65347,-3.395861 1.622728,-5.419392 -0.108594,-5.268398 -10.707453,-6.26593 -10.775095,-0.03191 0.08289,2.822026 1.854497,3.796882 1.777982,5.449975 -0.324108,0 -4.831015,0.01596 -8.044824,0.01596 0,0 -0.01109,-12.598447 -0.01785,-12.903141 -0.06394,-3.018372 -3.726401,1.038408 -5.960607,1.092792 -2.432093,-0.07774 -2.916035,-5.927527 -0.243256,-6.021641 1.777264,0.0963 3.995399,1.426458 6.244202,1.360665 l -0.01126,-10.372263 10.76014,0 c 0.313068,-2.161885 -1.81106,-5.4225943 -1.781173,-7.1261768 -0.02931,-1.7686506 2.71325,-1.7999712 3.613102,-1.8201691 3.126113,-0.070168 4.391004,0.6258887 4.433268,1.8361266 z"
       id="path4067"
       sodipodi:nodetypes="csccccccccccccsccccccsc" />
  </g>
</svg>
