<?xml version="1.0" encoding="UTF-8" standalone="no"?>
<!-- Created with Inkscape (http://www.inkscape.org/) -->
<svg
   xmlns:dc="http://purl.org/dc/elements/1.1/"
   xmlns:cc="http://web.resource.org/cc/"
   xmlns:rdf="http://www.w3.org/1999/02/22-rdf-syntax-ns#"
   xmlns:svg="http://www.w3.org/2000/svg"
   xmlns="http://www.w3.org/2000/svg"
   xmlns:xlink="http://www.w3.org/1999/xlink"
   xmlns:sodipodi="http://inkscape.sourceforge.net/DTD/sodipodi-0.dtd"
   xmlns:inkscape="http://www.inkscape.org/namespaces/inkscape"
   width="64px"
   height="64px"
   id="svg2149"
   sodipodi:version="0.32"
   inkscape:version="0.42"
   sodipodi:docbase="/home/tamara/art/gate/icons"
   sodipodi:docname="gazetteer.svg"
   inkscape:export-filename="/home/tamara/art/gate/icons/gazetteer.png"
   inkscape:export-xdpi="90.000000"
   inkscape:export-ydpi="90.000000">
  <defs
     id="defs2151">
    <linearGradient
       inkscape:collect="always"
       id="linearGradient3720">
      <stop
         style="stop-color:#09b00f;stop-opacity:1;"
         offset="0"
         id="stop3722" />
      <stop
         style="stop-color:#09b00f;stop-opacity:0;"
         offset="1"
         id="stop3724" />
    </linearGradient>
    <linearGradient
       inkscape:collect="always"
       xlink:href="#linearGradient3720"
       id="linearGradient3726"
       x1="7.5454540"
       y1="72.181046"
       x2="37.643925"
       y2="14.908316"
       gradientUnits="userSpaceOnUse" />
  </defs>
  <sodipodi:namedview
     id="base"
     pagecolor="#ffffff"
     bordercolor="#666666"
     borderopacity="1.0"
     inkscape:pageopacity="0.0"
     inkscape:pageshadow="2"
     inkscape:zoom="5.5000000"
     inkscape:cx="42.258741"
     inkscape:cy="30.653878"
     inkscape:current-layer="layer1"
     showgrid="true"
     inkscape:document-units="px"
     inkscape:grid-bbox="true"
     inkscape:window-width="753"
     inkscape:window-height="521"
     inkscape:window-x="436"
     inkscape:window-y="361" />
  <metadata
     id="metadata2154">
    <rdf:RDF>
      <cc:Work
         rdf:about="">
        <dc:format>image/svg+xml</dc:format>
        <dc:type
           rdf:resource="http://purl.org/dc/dcmitype/StillImage" />
      </cc:Work>
    </rdf:RDF>
  </metadata>
  <g
     id="layer1"
     inkscape:label="Layer 1"
     inkscape:groupmode="layer">
    <path
       style="fill:#09b00f;fill-opacity:0.40555552;fill-rule:evenodd;stroke:#000000;stroke-width:1.0000000;stroke-miterlimit:4.0000000;stroke-opacity:1.0000000"
       d="M 33.015640,36.136363 L 51.742914,45.772727 C 54.504368,47.227273 49.923186,45.303163 47.924732,45.681818 C 45.077576,46.221280 33.958914,51.045454 43.924733,62.500000 L 8.6520045,45.590909 C 6.4360045,45.590909 7.5271354,34.874748 11.197458,31.500000 C 17.015640,26.150364 30.799640,36.136363 33.015640,36.136363 z "
       id="rect3728"
       sodipodi:nodetypes="ccsccsc" />
    <g
       id="g2891"
       transform="matrix(1.022388,0.000000,0.000000,1.002538,31.43257,21.83064)"
       style="fill:#09b00f;fill-opacity:0.40555555">
      <path
         d="M 26.181818 33.000000 A 8.6363640 8.4545450 0 1 1  8.9090900,33.000000 A 8.6363640 8.4545450 0 1 1  26.181818 33.000000 z"
         sodipodi:ry="8.4545450"
         sodipodi:rx="8.6363640"
         sodipodi:cy="33.000000"
         sodipodi:cx="17.545454"
         id="path2159"
         style="opacity:1.0000000;fill:#09b00f;fill-opacity:0.40555555;fill-rule:evenodd;stroke:#000000;stroke-width:1.0000000;stroke-miterlimit:4.0000000;stroke-dasharray:none;stroke-opacity:1.0000000"
         sodipodi:type="arc" />
      <path
         transform="matrix(0.783582,0.000000,0.000000,0.784264,4.092437,7.141845)"
         d="M 26.181818 33.000000 A 8.6363640 8.4545450 0 1 1  8.9090900,33.000000 A 8.6363640 8.4545450 0 1 1  26.181818 33.000000 z"
         sodipodi:ry="8.4545450"
         sodipodi:rx="8.6363640"
         sodipodi:cy="33.000000"
         sodipodi:cx="17.545454"
         id="path2887"
         style="opacity:1.0000000;fill:#09b00f;fill-opacity:0.40555555;fill-rule:evenodd;stroke:#000000;stroke-width:1.0000000;stroke-miterlimit:4.0000000;stroke-dasharray:none;stroke-opacity:1.0000000"
         sodipodi:type="arc" />
      <path
         transform="matrix(0.552239,0.000000,0.000000,0.515228,8.346759,16.62020)"
         d="M 26.181818 33.000000 A 8.6363640 8.4545450 0 1 1  8.9090900,33.000000 A 8.6363640 8.4545450 0 1 1  26.181818 33.000000 z"
         sodipodi:ry="8.4545450"
         sodipodi:rx="8.6363640"
         sodipodi:cy="33.000000"
         sodipodi:cx="17.545454"
         id="path2889"
         style="opacity:1.0000000;fill:#09b00f;fill-opacity:0.40555555;fill-rule:evenodd;stroke:#000000;stroke-width:1.0000000;stroke-miterlimit:4.0000000;stroke-dasharray:none;stroke-opacity:1.0000000"
         sodipodi:type="arc" />
    </g>
    <path
       style="fill:url(#linearGradient3726);fill-opacity:1.0;fill-rule:evenodd;stroke:#000000;stroke-width:0.99999988;stroke-miterlimit:4.0000000;stroke-opacity:1.0000000"
       d="M 12.570151,29.280362 L 19.316214,25.510654 C 32.305245,14.353301 23.107044,0.25323446 26.264398,3.0604461 L 60.053015,15.482296 C 59.755824,28.653143 47.254306,36.710867 43.412313,41.885023 C 42.604808,42.972520 39.236182,43.321294 38.120796,53.291096 C 37.002982,63.282602 53.602696,64.912151 37.718069,60.286758 L 7.0203594,46.410363 C 3.8630052,43.603152 5.5811214,31.164990 12.570151,29.280362 z "
       id="rect2896"
       sodipodi:nodetypes="ccccszccc" />
    <text
       xml:space="preserve"
       style="font-size:5.9658790px;font-style:normal;font-variant:normal;font-weight:normal;font-stretch:normal;text-align:start;line-height:125.00000%;writing-mode:lr-tb;text-anchor:start;fill:#000000;fill-opacity:1.0000000;stroke:none;stroke-width:1.0000000px;stroke-linecap:butt;stroke-linejoin:miter;stroke-opacity:1.0000000;font-family:Good Times"
       x="30.173914"
       y="1.5398921"
       id="text2923"
       sodipodi:linespacing="125.00000%"
       transform="matrix(0.902324,0.344845,-0.314982,0.987871,0.000000,0.000000)"><tspan
         sodipodi:role="line"
         id="tspan2925"
         x="30.173914"
         y="1.5398921">Gazette</tspan></text>
    <path
       style="fill:none;fill-opacity:0.75000000;fill-rule:evenodd;stroke:#000000;stroke-width:1.0000000px;stroke-linecap:butt;stroke-linejoin:miter;stroke-opacity:1.0000000"
       d="M 27.000000,18.000000 C 35.000000,22.000000 35.000000,22.000000 35.000000,22.000000"
       id="path2927" />
    <path
       style="fill:none;fill-opacity:0.75000000;fill-rule:evenodd;stroke:#000000;stroke-width:1.0000000px;stroke-linecap:butt;stroke-linejoin:miter;stroke-opacity:1.0000000"
       d="M 25.090909,22.363636 C 33.090909,26.363636 33.090909,26.363636 33.090909,26.363636"
       id="path2929" />
    <path
       style="fill:none;fill-opacity:0.75000000;fill-rule:evenodd;stroke:#000000;stroke-width:1.0000000px;stroke-linecap:butt;stroke-linejoin:miter;stroke-opacity:1.0000000"
       d="M 26.500000,20.500000 C 34.500000,24.500000 34.500000,24.500000 34.500000,24.500000"
       id="path2933" />
    <path
       style="fill:none;fill-opacity:0.75000000;fill-rule:evenodd;stroke:#000000;stroke-width:1.0000000px;stroke-linecap:butt;stroke-linejoin:miter;stroke-opacity:1.0000000"
       d="M 20.500000,27.500000 C 28.500000,31.500000 28.500000,31.500000 28.500000,31.500000"
       id="path2935" />
    <path
       style="fill:none;fill-opacity:0.75000000;fill-rule:evenodd;stroke:#000000;stroke-width:1.0000000px;stroke-linecap:butt;stroke-linejoin:miter;stroke-opacity:1.0000000"
       d="M 22.500000,25.500000 C 30.500000,29.500000 30.500000,29.500000 30.500000,29.500000"
       id="path2937" />
    <path
       style="fill:none;fill-opacity:0.75000000;fill-rule:evenodd;stroke:#000000;stroke-width:1.0000000px;stroke-linecap:butt;stroke-linejoin:miter;stroke-opacity:1.0000000"
       d="M 17.500000,28.909090 C 25.500000,32.909090 25.500000,32.909090 25.500000,32.909090"
       id="path2939" />
    <path
       style="fill:none;fill-opacity:0.75000000;fill-rule:evenodd;stroke:#000000;stroke-width:1.0000000px;stroke-linecap:butt;stroke-linejoin:miter;stroke-opacity:1.0000000"
       d="M 13.500000,31.500000 C 21.500000,35.500000 21.500000,35.500000 21.500000,35.500000"
       id="path2941" />
    <path
       style="fill:none;fill-opacity:0.75000000;fill-rule:evenodd;stroke:#000000;stroke-width:1.0000000px;stroke-linecap:butt;stroke-linejoin:miter;stroke-opacity:1.0000000"
       d="M 11.500000,34.500000 C 19.500000,38.500000 19.500000,38.500000 19.500000,38.500000"
       id="path2943" />
    <path
       style="fill:none;fill-opacity:0.75000000;fill-rule:evenodd;stroke:#000000;stroke-width:1.0000000px;stroke-linecap:butt;stroke-linejoin:miter;stroke-opacity:1.0000000"
       d="M 9.5000000,37.500000 C 17.500000,41.500000 17.500000,41.500000 17.500000,41.500000"
       id="path2945" />
    <path
       style="fill:none;fill-opacity:0.75000000;fill-rule:evenodd;stroke:#000000;stroke-width:1.0000000px;stroke-linecap:butt;stroke-linejoin:miter;stroke-opacity:1.0000000"
       d="M 8.4999995,41.090909 C 16.500000,45.090909 16.500000,45.090909 16.500000,45.090909"
       id="path2947" />
    <path
       style="fill:none;fill-opacity:0.75000000;fill-rule:evenodd;stroke:#000000;stroke-width:1.0000000px;stroke-linecap:butt;stroke-linejoin:miter;stroke-opacity:1.0000000"
       d="M 41.000000,23.500000 C 49.000000,27.500000 49.000000,27.500000 49.000000,27.500000"
       id="path2949" />
    <path
       style="fill:none;fill-opacity:0.75000000;fill-rule:evenodd;stroke:#000000;stroke-width:1.0000000px;stroke-linecap:butt;stroke-linejoin:miter;stroke-opacity:1.0000000"
       d="M 40.500000,26.500000 C 48.500000,30.500000 48.500000,30.500000 48.500000,30.500000"
       id="path2951" />
    <path
       style="fill:none;fill-opacity:0.75000000;fill-rule:evenodd;stroke:#000000;stroke-width:1.0000000px;stroke-linecap:butt;stroke-linejoin:miter;stroke-opacity:1.0000000"
       d="M 36.500000,29.500000 C 44.500000,33.500000 44.500000,33.500000 44.500000,33.500000"
       id="path2953" />
    <path
       style="fill:none;fill-opacity:0.75000000;fill-rule:evenodd;stroke:#000000;stroke-width:1.0000000px;stroke-linecap:butt;stroke-linejoin:miter;stroke-opacity:1.0000000"
       d="M 34.500000,31.500000 C 42.500000,35.500000 42.500000,35.500000 42.500000,35.500000"
       id="path2955" />
    <path
       style="fill:none;fill-opacity:0.75000000;fill-rule:evenodd;stroke:#000000;stroke-width:1.0000000px;stroke-linecap:butt;stroke-linejoin:miter;stroke-opacity:1.0000000"
       d="M 31.500000,35.500000 C 39.500000,39.500000 39.500000,39.500000 39.500000,39.500000"
       id="path2957" />
    <path
       style="fill:none;fill-opacity:0.75000000;fill-rule:evenodd;stroke:#000000;stroke-width:1.0000000px;stroke-linecap:butt;stroke-linejoin:miter;stroke-opacity:1.0000000"
       d="M 29.500000,37.500000 C 37.500000,41.500000 37.500000,41.500000 37.500000,41.500000"
       id="path2959" />
    <path
       style="fill:none;fill-opacity:0.75000000;fill-rule:evenodd;stroke:#000000;stroke-width:1.0000000px;stroke-linecap:butt;stroke-linejoin:miter;stroke-opacity:1.0000000"
       d="M 26.977272,39.500000 C 34.977272,43.500000 34.977272,43.500000 34.977272,43.500000"
       id="path2961" />
    <path
       style="fill:none;fill-opacity:0.75000000;fill-rule:evenodd;stroke:#000000;stroke-width:1.0000000px;stroke-linecap:butt;stroke-linejoin:miter;stroke-opacity:1.0000000"
       d="M 25.500000,42.500000 C 33.500000,46.500000 33.500000,46.500000 33.500000,46.500000"
       id="path2963" />
    <path
       style="fill:none;fill-opacity:0.75000000;fill-rule:evenodd;stroke:#000000;stroke-width:1.0000000px;stroke-linecap:butt;stroke-linejoin:miter;stroke-opacity:1.0000000"
       d="M 24.795455,45.840909 C 32.795455,49.840909 32.795455,49.840909 32.795455,49.840909"
       id="path2965" />
    <path
       style="fill:none;fill-opacity:0.75000000;fill-rule:evenodd;stroke:#000000;stroke-width:1.0000000px;stroke-linecap:butt;stroke-linejoin:miter;stroke-opacity:1.0000000"
       d="M 24.295455,48.340909 C 32.295455,52.340909 32.295455,52.340909 32.295455,52.340909"
       id="path2967" />
  </g>
</svg>
