<?xml version="1.0" encoding="UTF-8" standalone="no"?>
<!-- Created with Inkscape (http://www.inkscape.org/) -->

<svg
   xmlns:dc="http://purl.org/dc/elements/1.1/"
   xmlns:cc="http://creativecommons.org/ns#"
   xmlns:rdf="http://www.w3.org/1999/02/22-rdf-syntax-ns#"
   xmlns:svg="http://www.w3.org/2000/svg"
   xmlns="http://www.w3.org/2000/svg"
   xmlns:xlink="http://www.w3.org/1999/xlink"
   xmlns:sodipodi="http://sodipodi.sourceforge.net/DTD/sodipodi-0.dtd"
   xmlns:inkscape="http://www.inkscape.org/namespaces/inkscape"
   width="48"
   height="48"
   id="svg2"
   sodipodi:version="0.32"
   inkscape:version="0.48.1 r9760"
   version="1.0"
   sodipodi:docname="Updates.svg"
   inkscape:output_extension="org.inkscape.output.svg.inkscape">
  <defs
     id="defs4">
    <linearGradient
       inkscape:collect="always"
       id="linearGradient6404">
      <stop
         style="stop-color:#fcaf3e;stop-opacity:1;"
         offset="0"
         id="stop6406" />
      <stop
         style="stop-color:#fcaf3e;stop-opacity:0;"
         offset="1"
         id="stop6408" />
    </linearGradient>
    <linearGradient
       id="linearGradient6394">
      <stop
         style="stop-color:#f57900;stop-opacity:1;"
         offset="0"
         id="stop6396" />
      <stop
         style="stop-color:#fcaf3e;stop-opacity:1"
         offset="1"
         id="stop6398" />
    </linearGradient>
    <linearGradient
       id="linearGradient3444"
       inkscape:collect="always">
      <stop
         id="stop3446"
         offset="0"
         style="stop-color:#fcaf3e;stop-opacity:1" />
      <stop
         id="stop3448"
         offset="1"
         style="stop-color:#f57900;stop-opacity:1" />
    </linearGradient>
    <linearGradient
       inkscape:collect="always"
       id="linearGradient3383">
      <stop
         style="stop-color:#000000;stop-opacity:1;"
         offset="0"
         id="stop3385" />
      <stop
         style="stop-color:#000000;stop-opacity:0;"
         offset="1"
         id="stop3387" />
    </linearGradient>
    <linearGradient
       inkscape:collect="always"
       id="linearGradient3360">
      <stop
         style="stop-color:#ffffff;stop-opacity:1;"
         offset="0"
         id="stop3362" />
      <stop
         style="stop-color:#ffffff;stop-opacity:0;"
         offset="1"
         id="stop3364" />
    </linearGradient>
    <radialGradient
       inkscape:collect="always"
       xlink:href="#linearGradient3383"
       id="radialGradient5377"
       gradientUnits="userSpaceOnUse"
       gradientTransform="matrix(1,0,0,0.4889336,0,8.0475196)"
       cx="11.026446"
       cy="15.746525"
       fx="11.026446"
       fy="15.746525"
       r="10.982252" />
    <radialGradient
       inkscape:collect="always"
       xlink:href="#linearGradient3444"
       id="radialGradient5383"
       gradientUnits="userSpaceOnUse"
       gradientTransform="matrix(1.1446622,-0.2591603,0.2642989,1.1833169,6.5723702,9.6762876)"
       cx="-9.6242685"
       cy="-13.159472"
       fx="-9.6242685"
       fy="-13.159472"
       r="29.191137" />
    <linearGradient
       inkscape:collect="always"
       xlink:href="#linearGradient3360"
       id="linearGradient5385"
       gradientUnits="userSpaceOnUse"
       x1="-10.618274"
       y1="-9.0397129"
       x2="18.455231"
       y2="35.779209" />
    <linearGradient
       inkscape:collect="always"
       xlink:href="#linearGradient6394"
       id="linearGradient6400"
       x1="27.6875"
       y1="21.75"
       x2="28.4375"
       y2="26.4375"
       gradientUnits="userSpaceOnUse" />
    <radialGradient
       inkscape:collect="always"
       xlink:href="#linearGradient6404"
       id="radialGradient6410"
       cx="27.5"
       cy="19.095654"
       fx="27.5"
       fy="19.095654"
       r="0.50000006"
       gradientTransform="matrix(-15.000008,0,0,19.224616,434.95141,-346.98161)"
       gradientUnits="userSpaceOnUse" />
  </defs>
  <sodipodi:namedview
     id="base"
     pagecolor="#ffffff"
     bordercolor="#afafaf"
     borderopacity="1"
     inkscape:pageopacity="0"
     inkscape:pageshadow="2"
     inkscape:zoom="8"
     inkscape:cx="48.840876"
     inkscape:cy="17.830871"
     inkscape:document-units="px"
     inkscape:current-layer="layer1"
     width="48px"
     height="48px"
     inkscape:showpageshadow="false"
     borderlayer="true"
     inkscape:window-width="1267"
     inkscape:window-height="957"
     inkscape:window-x="26"
     inkscape:window-y="24"
     showgrid="false"
     inkscape:grid-points="true"
     showborder="true"
     inkscape:window-maximized="0">
    <inkscape:grid
       id="GridFromPre046Settings"
       type="xygrid"
       originx="0px"
       originy="0px"
       spacingx="0.5px"
       spacingy="0.5px"
       color="#0000ff"
       empcolor="#0000ff"
       opacity="0.2"
       empopacity="0.4"
       empspacing="2"
       visible="true"
       enabled="true"
       snapvisiblegridlinesonly="true" />
  </sodipodi:namedview>
  <metadata
     id="metadata7">
    <rdf:RDF>
      <cc:Work
         rdf:about="">
        <dc:format>image/svg+xml</dc:format>
        <dc:type
           rdf:resource="http://purl.org/dc/dcmitype/StillImage" />
        <dc:creator>
          <cc:Agent>
            <dc:title>Lapo Calamandrei</dc:title>
          </cc:Agent>
        </dc:creator>
        <cc:license
           rdf:resource="http://creativecommons.org/licenses/GPL/2.0/" />
      </cc:Work>
      <cc:License
         rdf:about="http://creativecommons.org/licenses/GPL/2.0/">
        <cc:permits
           rdf:resource="http://web.resource.org/cc/Reproduction" />
        <cc:permits
           rdf:resource="http://web.resource.org/cc/Distribution" />
        <cc:requires
           rdf:resource="http://web.resource.org/cc/Notice" />
        <cc:permits
           rdf:resource="http://web.resource.org/cc/DerivativeWorks" />
        <cc:requires
           rdf:resource="http://web.resource.org/cc/ShareAlike" />
        <cc:requires
           rdf:resource="http://web.resource.org/cc/SourceCode" />
      </cc:License>
    </rdf:RDF>
  </metadata>
  <g
     inkscape:label="Livello 1"
     inkscape:groupmode="layer"
     id="layer1">
    <path
       sodipodi:type="star"
       style="fill:url(#radialGradient5383);fill-opacity:1;stroke:#ce5c00;stroke-width:1.41832316;stroke-linecap:round;stroke-linejoin:round;stroke-miterlimit:4;stroke-opacity:1;stroke-dasharray:none;stroke-dashoffset:0"
       id="path3430"
       sodipodi:sides="9"
       sodipodi:cx="1.5"
       sodipodi:cy="0.56249994"
       sodipodi:r1="17.531784"
       sodipodi:r2="28.247856"
       sodipodi:arg1="0.8197281"
       sodipodi:arg2="1.168794"
       inkscape:flatsided="false"
       inkscape:rounded="0"
       inkscape:randomized="0"
       d="M 13.46404,13.377538 12.552308,26.55842 2.4276384,18.069725 l -9.1709349,9.511092 -2.2995188,-13.01073 -13.1389557,1.390955 6.601602,-11.4448988 -10.959112,-7.3800241 12.41376,-4.5238735 -3.651379,-12.6978086 12.4173814,4.513923 5.36487492,-12.074146 6.61077248,11.439604 11.8708442,-5.800857 -2.28909,13.0125679 12.822314,3.1867168 -10.117863,8.4968066 7.77408,10.6831917 z"
       transform="matrix(-0.6902144,0.1552146,0.1541593,0.6855536,26.500173,22.674951)" />
    <path
       sodipodi:type="inkscape:offset"
       inkscape:radius="-1.2811146"
       inkscape:original="M 0 -27.65625 L -5.375 -15.5625 L -17.78125 -20.09375 L -14.125 -7.375 L -26.53125 -2.875 L -15.59375 4.53125 L -22.1875 15.96875 L -9.03125 14.5625 L -6.75 27.59375 L 2.4375 18.0625 L 12.5625 26.5625 L 13.46875 13.375 L 26.6875 13.375 L 18.90625 2.6875 L 29.03125 -5.8125 L 16.1875 -9 L 18.5 -22 L 6.625 -16.21875 L 0 -27.65625 z "
       style="opacity:0.46551729;fill:none;stroke:url(#linearGradient5385);stroke-width:1.43240833;stroke-linecap:round;stroke-linejoin:miter;stroke-miterlimit:4;stroke-opacity:1;stroke-dasharray:none;stroke-dashoffset:0"
       id="path3432"
       d="m 0.15625,-24.84375 -4.375,9.8125 a 1.2812427,1.2812427 0 0 1 -1.59375,0.6875 l -10.0625,-3.6875 2.96875,10.3125 a 1.2812427,1.2812427 0 0 1 -0.78125,1.5625 l -10.03125,3.625 8.84375,6 a 1.2812427,1.2812427 0 0 1 0.40625,1.6875 l -5.34375,9.25 10.65625,-1.125 a 1.2812427,1.2812427 0 0 1 1.375,1.0625 L -5.9375,24.90625 1.5,17.1875 a 1.2812427,1.2812427 0 0 1 1.75,-0.09375 l 8.1875,6.875 0.75,-10.6875 a 1.2812427,1.2812427 0 0 1 1.28125,-1.1875 l 10.71875,0 L 17.875,3.4375 a 1.2812427,1.2812427 0 0 1 0.21875,-1.71875 l 8.1875,-6.875 L 15.875,-7.75 a 1.2812427,1.2812427 0 0 1 -0.9375,-1.46875 l 1.875,-10.53125 -9.625,4.6875 a 1.2812427,1.2812427 0 0 1 -1.65625,-0.5 l -5.375,-9.28125 z"
       transform="matrix(-0.6834225,0.1536895,0.1526423,0.6788171,26.403013,22.680438)" />
    <path
       sodipodi:type="inkscape:offset"
       inkscape:radius="1.0043849"
       inkscape:original="M 23 16 L 23 23 L 19 23 L 25 31.5 L 31 23 L 27 23 L 27 16 L 23 16 z "
       style="fill:url(#linearGradient6400);fill-opacity:1;stroke:none"
       id="path6392"
       d="M 22.90625,15 A 1.0044853,1.0044853 0 0 0 22,16 l 0,6 -3,0 a 1.0044853,1.0044853 0 0 0 -0.8125,1.59375 l 6,8.5 a 1.0044853,1.0044853 0 0 0 1.625,0 l 6,-8.5 A 1.0044853,1.0044853 0 0 0 31,22 l -3,0 0,-6 a 1.0044853,1.0044853 0 0 0 -1,-1 l -4,0 a 1.0044853,1.0044853 0 0 0 -0.09375,0 z"
       transform="matrix(-1,0,0,1,49.951169,0)" />
    <path
       style="fill:#ffffff;fill-opacity:1;stroke:none"
       d="m 24.951169,31.5 6,-8.5 -4,0 0,-7 -4,0 0,7 -4,0 6,8.5 z"
       id="path3436"
       sodipodi:nodetypes="cccccccc"
       inkscape:connector-curvature="0" />
    <path
       style="fill:none;stroke:url(#radialGradient6410);stroke-width:1.00000012px;stroke-linecap:round;stroke-linejoin:miter;stroke-opacity:1"
       d="m 22.451169,21.929391 0,-5.858781"
       id="path6402"
       inkscape:connector-curvature="0" />
  </g>
</svg>
