<?xml version="1.0" encoding="UTF-8" standalone="no"?>
<!-- Created with Inkscape (http://www.inkscape.org/) -->

<svg
   xmlns:dc="http://purl.org/dc/elements/1.1/"
   xmlns:cc="http://creativecommons.org/ns#"
   xmlns:rdf="http://www.w3.org/1999/02/22-rdf-syntax-ns#"
   xmlns:svg="http://www.w3.org/2000/svg"
   xmlns="http://www.w3.org/2000/svg"
   xmlns:sodipodi="http://sodipodi.sourceforge.net/DTD/sodipodi-0.dtd"
   xmlns:inkscape="http://www.inkscape.org/namespaces/inkscape"
   id="svg2"
   version="1.1"
   inkscape:version="0.91 r13725"
   xml:space="preserve"
   width="64"
   height="64"
   viewBox="0 0 64 63.999999"
   sodipodi:docname="GATE.svg"><metadata
     id="metadata8"><rdf:RDF><cc:Work
         rdf:about=""><dc:format>image/svg+xml</dc:format><dc:type
           rdf:resource="http://purl.org/dc/dcmitype/StillImage" /><dc:title></dc:title></cc:Work></rdf:RDF></metadata><defs
     id="defs6"><clipPath
       clipPathUnits="userSpaceOnUse"
       id="clipPath20"><path
         d="m 0,141.732 354.331,0 L 354.331,0 0,0 0,141.732 Z"
         id="path22"
         inkscape:connector-curvature="0" /></clipPath></defs><sodipodi:namedview
     pagecolor="#ffffff"
     bordercolor="#666666"
     borderopacity="1"
     objecttolerance="10"
     gridtolerance="10"
     guidetolerance="10"
     inkscape:pageopacity="0"
     inkscape:pageshadow="2"
     inkscape:window-width="3070"
     inkscape:window-height="1752"
     id="namedview4"
     showgrid="false"
     inkscape:zoom="6.3859545"
     inkscape:cx="47.008581"
     inkscape:cy="22.924001"
     inkscape:window-x="130"
     inkscape:window-y="48"
     inkscape:window-maximized="1"
     inkscape:current-layer="g10" /><g
     id="g10"
     inkscape:groupmode="layer"
     inkscape:label="GATE rgb all"
     transform="matrix(1.25,0,0,-1.25,0,64.000007)"><path
       style="fill:#009641;fill-opacity:1;fill-rule:nonzero;stroke:none"
       d="m 48.9632,17.84605 0,10.669844 -24.975734,0 0,-8.455896 14.567763,0 c -1.743896,-5.302752 -5.701283,-8.325874 -11.408376,-8.325874 -8.259266,0 -13.228676,5.100345 -13.228676,13.830583 0,8.188257 4.903729,13.42488 12.28859,13.42488 4.296516,0 7.515776,-1.678221 9.259672,-4.831812 l 12.692951,0 c -2.486938,9.664072 -10.676055,15.442231 -21.952623,15.442231 -14.09772,0 -23.969967,-9.937522 -23.969967,-24.035299 0,-14.097777 9.937481,-23.9647014 24.035202,-23.9647014 12.419504,0 20.275301,8.1225754 22.691198,16.2460444"
       id="path26"
       inkscape:connector-curvature="0" /></g></svg>