<?xml version="1.0" encoding="UTF-8" standalone="no"?>
<svg
   xmlns:dc="http://purl.org/dc/elements/1.1/"
   xmlns:cc="http://creativecommons.org/ns#"
   xmlns:rdf="http://www.w3.org/1999/02/22-rdf-syntax-ns#"
   xmlns:svg="http://www.w3.org/2000/svg"
   xmlns="http://www.w3.org/2000/svg"
   xmlns:xlink="http://www.w3.org/1999/xlink"
   xmlns:sodipodi="http://sodipodi.sourceforge.net/DTD/sodipodi-0.dtd"
   xmlns:inkscape="http://www.inkscape.org/namespaces/inkscape"
   width="48.000355"
   height="48"
   style="fill-opacity:1;fill-rule:evenodd;stroke:none"
   id="svg2"
   version="1.1"
   inkscape:version="0.91 r13725"
   sodipodi:docname="GATEXML.svg">
  <metadata
     id="metadata80">
    <rdf:RDF>
      <cc:Work
         rdf:about="">
        <dc:format>image/svg+xml</dc:format>
        <dc:type
           rdf:resource="http://purl.org/dc/dcmitype/StillImage" />
      </cc:Work>
    </rdf:RDF>
  </metadata>
  <sodipodi:namedview
     pagecolor="#ffffff"
     bordercolor="#666666"
     borderopacity="1"
     objecttolerance="10"
     gridtolerance="10"
     guidetolerance="10"
     inkscape:pageopacity="0"
     inkscape:pageshadow="2"
     inkscape:window-width="3070"
     inkscape:window-height="1752"
     id="namedview78"
     showgrid="false"
     fit-margin-top="4"
     fit-margin-left="4"
     fit-margin-right="4"
     fit-margin-bottom="4"
     inkscape:zoom="17.088225"
     inkscape:cx="17.031843"
     inkscape:cy="9.2180083"
     inkscape:window-x="130"
     inkscape:window-y="48"
     inkscape:window-maximized="1"
     inkscape:current-layer="svg2" />
  <defs
     id="defs4">
    <linearGradient
       id="gr1">
      <stop
         offset="0"
         style="stop-color:#000000;stop-opacity:0.1"
         id="stop7" />
      <stop
         offset="1"
         style="stop-color:#000000;stop-opacity:0"
         id="stop9" />
    </linearGradient>
    <linearGradient
       id="gr2"
       xlink:href="#gr1"
       x1="0.052000001"
       y1="0.977"
       x2="0.78299999"
       y2="0" />
    <linearGradient
       id="gr3">
      <stop
         offset="0"
         style="stop-color:#ffffff;stop-opacity:1"
         id="stop13" />
      <stop
         offset="1"
         style="stop-color:#ffffff;stop-opacity:0"
         id="stop15" />
    </linearGradient>
    <linearGradient
       id="gr4"
       xlink:href="#gr3"
       x1="1.557"
       y1="-0.55299997"
       x2="0.063000001"
       y2="0.54699999" />
    <linearGradient
       id="gr5">
      <stop
         offset="0"
         style="stop-color:#dadada;stop-opacity:1"
         id="stop19" />
      <stop
         offset="0.35"
         style="stop-color:#f1f1f1;stop-opacity:1"
         id="stop21" />
      <stop
         offset="1"
         style="stop-color:#f0f0f0;stop-opacity:1"
         id="stop23" />
    </linearGradient>
    <linearGradient
       id="gr6"
       xlink:href="#gr5"
       x1="0.88"
       y1="0.211"
       x2="0.085000001"
       y2="1.1799999" />
    <linearGradient
       id="gr7"
       xlink:href="#gr5"
       x1="0.63200003"
       y1="0.32800001"
       x2="-0.37599999"
       y2="1.3279999" />
    <path
       id="pathTagXML"
       d="m 4.2424884,2.9393196 2.9238281,0 1.5234375,2.6425781 1.476563,-2.6425781 2.894531,0 -2.671875,4.1601563 2.923828,4.4296871 -2.982422,0 -1.6933594,-2.7597653 -1.6992187,2.7597653 -2.9648438,0 L 6.9378009,7.0526009 4.2424884,2.9393196 z m 9.8906246,0 3.492188,0 1.347656,5.2265625 1.341797,-5.2265625 3.480469,0 0,8.5898434 -2.167969,0 0,-6.5507809 -1.681641,6.5507809 -1.96289,0 -1.675781,-6.5507809 0,6.5507809 -2.173829,0 0,-8.5898434 z m 11.34961,0 2.654297,0 0,6.4746094 4.142578,0 0,2.115234 -6.796875,0 0,-8.5898434 z"
       inkscape:connector-curvature="0" />
  </defs>
  <path
     style="fill:#009641;fill-opacity:1;fill-rule:nonzero;stroke:none"
     d="m 37.250169,26.347783 0,-7.557806 -17.691145,0 0,5.989593 10.318832,0 c -1.23526,3.756116 -4.038409,5.897495 -8.080933,5.897495 -5.850313,0 -9.370312,-3.612745 -9.370312,-9.796663 0,-5.800016 3.473475,-9.50929 8.704418,-9.50929 3.043365,0 5.323674,1.188739 6.558934,3.422533 l 8.990841,0 C 34.919222,7.948261 29.118598,3.855398 21.131029,3.855398 c -9.985885,0 -16.9787272,7.039078 -16.9787272,17.025004 0,9.985925 7.0390492,16.974996 17.0249352,16.974996 8.797149,0 14.361671,-5.753491 16.072932,-11.507615"
     id="path26"
     inkscape:connector-curvature="0" />
  <g
     id="gTagXML"
     transform="matrix(0.94444444,0,0,0.94444444,11,31.777777)">
    <path
       style="fill:#803300"
       d="M 36,14 35,13 35,1 36,0 36,14 z"
       id="path64"
       inkscape:connector-curvature="0" />
    <rect
       style="fill:#ff6600"
       width="34"
       height="12"
       x="1"
       y="1"
       id="rect66" />
    <path
       style="fill:#ffccaa"
       d="M 0,0 36,0 35,1 1,1 0,0 z"
       id="path68"
       inkscape:connector-curvature="0" />
    <path
       style="fill:#552200"
       d="M 0,14 36,14 35,13 1,13 0,14 z"
       id="path70"
       inkscape:connector-curvature="0" />
    <path
       style="fill:#ff9955"
       d="M 1,13 0,14 0,0 1,1 1,13 z"
       id="path72"
       inkscape:connector-curvature="0" />
    <use
       xlink:href="#pathTagXML"
       style="fill:#803300"
       transform="translate(1,1)"
       id="use74"
       x="0"
       y="0"
       width="275"
       height="312.5" />
    <use
       xlink:href="#pathTagXML"
       style="fill:#ffffff"
       id="use76"
       x="0"
       y="0"
       width="275"
       height="312.5" />
  </g>
</svg>
