<?xml version="1.0" encoding="UTF-8" standalone="no"?>
<!-- Created with Inkscape (http://www.inkscape.org/) -->

<svg
   xmlns:dc="http://purl.org/dc/elements/1.1/"
   xmlns:cc="http://creativecommons.org/ns#"
   xmlns:rdf="http://www.w3.org/1999/02/22-rdf-syntax-ns#"
   xmlns:svg="http://www.w3.org/2000/svg"
   xmlns="http://www.w3.org/2000/svg"
   xmlns:sodipodi="http://sodipodi.sourceforge.net/DTD/sodipodi-0.dtd"
   xmlns:inkscape="http://www.inkscape.org/namespaces/inkscape"
   id="svg2"
   version="1.1"
   inkscape:version="0.91 r13725"
   xml:space="preserve"
   width="193.98288"
   height="64"
   viewBox="0 0 193.98288 63.999999"
   sodipodi:docname="GATEName.svg"><metadata
     id="metadata8"><rdf:RDF><cc:Work
         rdf:about=""><dc:format>image/svg+xml</dc:format><dc:type
           rdf:resource="http://purl.org/dc/dcmitype/StillImage" /><dc:title></dc:title></cc:Work></rdf:RDF></metadata><defs
     id="defs6"><clipPath
       clipPathUnits="userSpaceOnUse"
       id="clipPath20"><path
         d="m 0,141.732 354.331,0 L 354.331,0 0,0 0,141.732 Z"
         id="path22"
         inkscape:connector-curvature="0" /></clipPath></defs><sodipodi:namedview
     pagecolor="#ffffff"
     bordercolor="#666666"
     borderopacity="1"
     objecttolerance="10"
     gridtolerance="10"
     guidetolerance="10"
     inkscape:pageopacity="0"
     inkscape:pageshadow="2"
     inkscape:window-width="3070"
     inkscape:window-height="1752"
     id="namedview4"
     showgrid="false"
     fit-margin-top="2"
     fit-margin-left="2"
     fit-margin-right="2"
     fit-margin-bottom="2"
     inkscape:zoom="1.1288879"
     inkscape:cx="214.59875"
     inkscape:cy="69.142378"
     inkscape:window-x="130"
     inkscape:window-y="48"
     inkscape:window-maximized="1"
     inkscape:current-layer="g10" /><g
     id="g10"
     inkscape:groupmode="layer"
     inkscape:label="GATE rgb all"
     transform="matrix(1.25,0,0,-1.25,-6.858125,83.440125)"><g
       id="g3354"
       transform="matrix(0.44681089,0,0,0.44681089,3.9201746,9.488355)"><g
         transform="translate(144.7804,123.3685)"
         id="g12"><path
           inkscape:connector-curvature="0"
           id="path14"
           style="fill:#e60000;fill-opacity:1;fill-rule:nonzero;stroke:none"
           d="m 0,0 -38.157,-105.471 26.89,0 6.312,18.634 39.358,0 6.313,-18.634 27.198,0 L 29.753,0 0,0 Z m 2.241,-3.193 25.271,0 35.848,-99.084 -20.355,0 -5.577,16.464 -0.735,2.168 -2.29,0 -39.358,0 -2.289,0 -0.736,-2.168 -5.577,-16.464 -20.048,0 35.846,99.084 z m 9.448,-24.188 -12.919,-38.612 -1.407,-4.207 4.436,0 25.998,0 4.453,0 -1.427,4.219 -13.08,38.61 -3.043,8.986 -3.011,-8.996 z m 3.028,-1.015 13.08,-38.61 -25.998,0 12.918,38.61 z m 60.191,-77.075 25.693,0 0,63.608 -25.693,0 0,-63.608 z m 3.194,60.415 19.304,0 0,-57.222 -19.304,0 0,57.222 z" /></g><g
         id="g16"><g
           clip-path="url(#clipPath20)"
           id="g18"><g
             transform="translate(308.3385,38.4881)"
             id="g24"><path
               inkscape:connector-curvature="0"
               id="path26"
               style="fill:#009641;fill-opacity:1;fill-rule:nonzero;stroke:none"
               d="m 0,0 0,23.135 34.403,0 0,19.832 -34.403,0 0,21.336 38.906,0 0,20.578 -64.61,0 0,-105.472 64.61,0 L 38.906,0 0,0 Z m -116.592,64.303 81.577,0 0,20.577 -81.577,0 0,-20.577 z m -80.082,-49.279 0,23.88 -55.898,0 0,-18.925 32.604,0 c -3.903,-11.868 -12.76,-18.634 -25.533,-18.634 -18.485,0 -29.607,11.415 -29.607,30.954 0,18.326 10.975,30.046 27.503,30.046 9.616,0 16.821,-3.756 20.724,-10.814 l 28.408,0 c -5.566,21.629 -23.894,34.561 -49.132,34.561 -31.552,0 -53.647,-22.241 -53.647,-53.793 0,-31.552 22.241,-53.635 53.793,-53.635 27.796,0 45.378,18.179 50.785,36.36" /></g></g></g></g></g></svg>