<?xml version="1.0" encoding="UTF-8" standalone="no"?>
<svg
   xmlns:dc="http://purl.org/dc/elements/1.1/"
   xmlns:cc="http://creativecommons.org/ns#"
   xmlns:rdf="http://www.w3.org/1999/02/22-rdf-syntax-ns#"
   xmlns:svg="http://www.w3.org/2000/svg"
   xmlns="http://www.w3.org/2000/svg"
   xmlns:xlink="http://www.w3.org/1999/xlink"
   xmlns:sodipodi="http://sodipodi.sourceforge.net/DTD/sodipodi-0.dtd"
   xmlns:inkscape="http://www.inkscape.org/namespaces/inkscape"
   width="48.000355"
   height="48"
   style="fill-opacity:1;fill-rule:evenodd;stroke:none"
   id="svg2"
   version="1.1"
   inkscape:version="0.48.4 r9939"
   sodipodi:docname="GATEXML.svg">
  <metadata
     id="metadata80">
    <rdf:RDF>
      <cc:Work
         rdf:about="">
        <dc:format>image/svg+xml</dc:format>
        <dc:type
           rdf:resource="http://purl.org/dc/dcmitype/StillImage" />
        <dc:title></dc:title>
      </cc:Work>
    </rdf:RDF>
  </metadata>
  <sodipodi:namedview
     pagecolor="#ffffff"
     bordercolor="#666666"
     borderopacity="1"
     objecttolerance="10"
     gridtolerance="10"
     guidetolerance="10"
     inkscape:pageopacity="0"
     inkscape:pageshadow="2"
     inkscape:window-width="2048"
     inkscape:window-height="1128"
     id="namedview78"
     showgrid="false"
     fit-margin-top="4"
     fit-margin-left="4"
     fit-margin-right="4"
     fit-margin-bottom="4"
     inkscape:zoom="1.5104"
     inkscape:cx="52.830414"
     inkscape:cy="-10.891349"
     inkscape:window-x="0"
     inkscape:window-y="24"
     inkscape:window-maximized="1"
     inkscape:current-layer="svg2" />
  <defs
     id="defs4">
    <linearGradient
       id="gr1">
      <stop
         offset="0"
         style="stop-color:#000000;stop-opacity:0.1"
         id="stop7" />
      <stop
         offset="1"
         style="stop-color:#000000;stop-opacity:0"
         id="stop9" />
    </linearGradient>
    <linearGradient
       id="gr2"
       xlink:href="#gr1"
       x1="0.052000001"
       y1="0.977"
       x2="0.78299999"
       y2="0" />
    <linearGradient
       id="gr3">
      <stop
         offset="0"
         style="stop-color:#ffffff;stop-opacity:1"
         id="stop13" />
      <stop
         offset="1"
         style="stop-color:#ffffff;stop-opacity:0"
         id="stop15" />
    </linearGradient>
    <linearGradient
       id="gr4"
       xlink:href="#gr3"
       x1="1.557"
       y1="-0.55299997"
       x2="0.063000001"
       y2="0.54699999" />
    <linearGradient
       id="gr5">
      <stop
         offset="0"
         style="stop-color:#dadada;stop-opacity:1"
         id="stop19" />
      <stop
         offset="0.35"
         style="stop-color:#f1f1f1;stop-opacity:1"
         id="stop21" />
      <stop
         offset="1"
         style="stop-color:#f0f0f0;stop-opacity:1"
         id="stop23" />
    </linearGradient>
    <linearGradient
       id="gr6"
       xlink:href="#gr5"
       x1="0.88"
       y1="0.211"
       x2="0.085000001"
       y2="1.1799999" />
    <linearGradient
       id="gr7"
       xlink:href="#gr5"
       x1="0.63200003"
       y1="0.32800001"
       x2="-0.37599999"
       y2="1.3279999" />
    <path
       id="pathTagXML"
       d="m 4.2424884,2.9393196 2.9238281,0 1.5234375,2.6425781 1.476563,-2.6425781 2.894531,0 -2.671875,4.1601563 2.923828,4.4296871 -2.982422,0 -1.6933594,-2.7597653 -1.6992187,2.7597653 -2.9648438,0 L 6.9378009,7.0526009 4.2424884,2.9393196 z m 9.8906246,0 3.492188,0 1.347656,5.2265625 1.341797,-5.2265625 3.480469,0 0,8.5898434 -2.167969,0 0,-6.5507809 -1.681641,6.5507809 -1.96289,0 -1.675781,-6.5507809 0,6.5507809 -2.173829,0 0,-8.5898434 z m 11.34961,0 2.654297,0 0,6.4746094 4.142578,0 0,2.115234 -6.796875,0 0,-8.5898434 z"
       inkscape:connector-curvature="0" />
    <radialGradient
       inkscape:collect="always"
       xlink:href="#linearGradient3688"
       id="radialGradient13620"
       gradientUnits="userSpaceOnUse"
       gradientTransform="matrix(2.003784,0,0,1.4,27.98813,-17.4)"
       cx="4.9929786"
       cy="43.5"
       fx="4.9929786"
       fy="43.5"
       r="2.5" />
    <linearGradient
       inkscape:collect="always"
       id="linearGradient3688">
      <stop
         style="stop-color:black;stop-opacity:1;"
         offset="0"
         id="stop3690" />
      <stop
         style="stop-color:black;stop-opacity:0;"
         offset="1"
         id="stop3692" />
    </linearGradient>
    <radialGradient
       inkscape:collect="always"
       xlink:href="#linearGradient3688"
       id="radialGradient13622"
       gradientUnits="userSpaceOnUse"
       gradientTransform="matrix(2.003784,0,0,1.4,-20.01187,-104.4)"
       cx="4.9929786"
       cy="43.5"
       fx="4.9929786"
       fy="43.5"
       r="2.5" />
    <linearGradient
       inkscape:collect="always"
       xlink:href="#linearGradient3702"
       id="linearGradient13624"
       gradientUnits="userSpaceOnUse"
       x1="25.058096"
       y1="47.027729"
       x2="25.058096"
       y2="39.999443" />
    <linearGradient
       id="linearGradient3702">
      <stop
         style="stop-color:black;stop-opacity:0;"
         offset="0"
         id="stop3704" />
      <stop
         id="stop3710"
         offset="0.5"
         style="stop-color:black;stop-opacity:1;" />
      <stop
         style="stop-color:black;stop-opacity:0;"
         offset="1"
         id="stop3706" />
    </linearGradient>
    <radialGradient
       inkscape:collect="always"
       xlink:href="#linearGradient3688"
       id="radialGradient13626"
       gradientUnits="userSpaceOnUse"
       gradientTransform="matrix(2.003784,0,0,1.4,27.98813,-17.4)"
       cx="4.9929786"
       cy="43.5"
       fx="4.9929786"
       fy="43.5"
       r="2.5" />
    <radialGradient
       inkscape:collect="always"
       xlink:href="#linearGradient3688"
       id="radialGradient13628"
       gradientUnits="userSpaceOnUse"
       gradientTransform="matrix(2.003784,0,0,1.4,-20.01187,-104.4)"
       cx="4.9929786"
       cy="43.5"
       fx="4.9929786"
       fy="43.5"
       r="2.5" />
    <linearGradient
       inkscape:collect="always"
       xlink:href="#linearGradient3702"
       id="linearGradient13630"
       gradientUnits="userSpaceOnUse"
       x1="25.058096"
       y1="47.027729"
       x2="25.058096"
       y2="39.999443" />
    <linearGradient
       id="linearGradient3104">
      <stop
         style="stop-color:black;stop-opacity:0;"
         offset="0"
         id="stop3106" />
      <stop
         id="stop3108"
         offset="0.5"
         style="stop-color:black;stop-opacity:1;" />
      <stop
         style="stop-color:black;stop-opacity:0;"
         offset="1"
         id="stop3110" />
    </linearGradient>
    <radialGradient
       inkscape:collect="always"
       xlink:href="#linearGradient3683"
       id="radialGradient13632"
       gradientUnits="userSpaceOnUse"
       gradientTransform="matrix(3.9957492,0,0,1.9350367,0.62141,-91.167422)"
       cx="-30.249996"
       cy="35.357208"
       fx="-30.249996"
       fy="35.357208"
       r="18.000002" />
    <linearGradient
       id="linearGradient3683">
      <stop
         id="stop3685"
         offset="0"
         style="stop-color:#f6f6f5;stop-opacity:1;" />
      <stop
         id="stop3689"
         offset="1"
         style="stop-color:#d3d7cf;stop-opacity:1" />
    </linearGradient>
    <linearGradient
       inkscape:collect="always"
       xlink:href="#linearGradient3613"
       id="linearGradient13634"
       gradientUnits="userSpaceOnUse"
       gradientTransform="translate(-90,-60)"
       x1="-47.5"
       y1="49.020683"
       x2="-62.75"
       y2="-22.502075" />
    <linearGradient
       inkscape:collect="always"
       id="linearGradient3613">
      <stop
         style="stop-color:#888a85;stop-opacity:1"
         offset="0"
         id="stop3615" />
      <stop
         style="stop-color:#babdb6;stop-opacity:1"
         offset="1"
         id="stop3617" />
    </linearGradient>
    <radialGradient
       inkscape:collect="always"
       xlink:href="#linearGradient3741"
       id="radialGradient13636"
       gradientUnits="userSpaceOnUse"
       gradientTransform="matrix(1.8860258,0,0,1.1764706,-3.5441033,-4.2352941)"
       cx="4"
       cy="5.2999997"
       fx="4"
       fy="5.2999997"
       r="17" />
    <linearGradient
       inkscape:collect="always"
       id="linearGradient3741">
      <stop
         style="stop-color:#ffffff;stop-opacity:1;"
         offset="0"
         id="stop3743" />
      <stop
         style="stop-color:#ffffff;stop-opacity:0;"
         offset="1"
         id="stop3745" />
    </linearGradient>
    <linearGradient
       inkscape:collect="always"
       xlink:href="#linearGradient3656"
       id="linearGradient13792"
       gradientUnits="userSpaceOnUse"
       gradientTransform="translate(-90,-60)"
       x1="-24.756966"
       y1="9.5694666"
       x2="-22.611664"
       y2="7.4241643" />
    <linearGradient
       inkscape:collect="always"
       id="linearGradient3656">
      <stop
         style="stop-color:#ffffff;stop-opacity:1;"
         offset="0"
         id="stop3658" />
      <stop
         style="stop-color:#ffffff;stop-opacity:0;"
         offset="1"
         id="stop3660" />
    </linearGradient>
    <radialGradient
       inkscape:collect="always"
       xlink:href="#linearGradient3671"
       id="radialGradient13784"
       gradientUnits="userSpaceOnUse"
       gradientTransform="matrix(0.2626416,-0.1805803,0.4842474,0.7055033,-76.987986,-55.026495)"
       cx="-26.305403"
       cy="10.108011"
       fx="-26.305403"
       fy="10.108011"
       r="7.0421038" />
    <linearGradient
       id="linearGradient3671">
      <stop
         style="stop-color:#ffffff;stop-opacity:1;"
         offset="0"
         id="stop3673" />
      <stop
         id="stop3691"
         offset="0.47533694"
         style="stop-color:#ffffff;stop-opacity:1;" />
      <stop
         style="stop-color:#ffffff;stop-opacity:0;"
         offset="1"
         id="stop3675" />
    </linearGradient>
    <linearGradient
       inkscape:collect="always"
       xlink:href="#linearGradient3520"
       id="linearGradient13786"
       gradientUnits="userSpaceOnUse"
       gradientTransform="matrix(0.5946829,0,0,0.5927814,-62.327355,-48.725799)"
       x1="-18.618725"
       y1="10.211342"
       x2="-30.558546"
       y2="12.189651" />
    <linearGradient
       inkscape:collect="always"
       id="linearGradient3520">
      <stop
         style="stop-color:#000000;stop-opacity:0.41295547"
         offset="0"
         id="stop3522" />
      <stop
         style="stop-color:#000000;stop-opacity:0;"
         offset="1"
         id="stop3524" />
    </linearGradient>
  </defs>
  <g
     style="display:inline"
     id="g13794"
     transform="translate(150,60)">
    <g
       transform="translate(0,-60)"
       id="g13584"
       style="display:inline">
      <rect
         style="opacity:0;fill:#000000;fill-opacity:1;stroke:none;display:inline"
         id="rect13586"
         width="48"
         height="48"
         x="-150"
         y="0" />
      <g
         id="g13588">
        <g
           transform="matrix(1.0464281,0,0,0.8888889,-151.18571,5.7222396)"
           inkscape:label="Shadow"
           id="g13590"
           style="opacity:0.65587045;display:inline">
          <g
             transform="matrix(1.052632,0,0,1.285713,-1.263158,-13.42854)"
             style="opacity:0.4"
             id="g13592">
            <rect
               style="fill:url(#radialGradient13620);fill-opacity:1;stroke:none"
               id="rect13594"
               width="5"
               height="7"
               x="38"
               y="40" />
            <rect
               style="fill:url(#radialGradient13622);fill-opacity:1;stroke:none"
               id="rect13596"
               width="5"
               height="7"
               x="-10"
               y="-47"
               transform="scale(-1,-1)" />
            <rect
               style="fill:url(#linearGradient13624);fill-opacity:1;stroke:none"
               id="rect13598"
               width="28"
               height="7.0000005"
               x="10"
               y="40" />
          </g>
        </g>
        <g
           transform="matrix(0.9548466,0,0,0.5555562,-148.98776,19.888875)"
           inkscape:label="Shadow"
           id="g13600"
           style="display:inline">
          <g
             transform="matrix(1.052632,0,0,1.285713,-1.263158,-13.42854)"
             style="opacity:0.4"
             id="g13602">
            <rect
               style="fill:url(#radialGradient13626);fill-opacity:1;stroke:none"
               id="rect13604"
               width="5"
               height="7"
               x="38"
               y="40" />
            <rect
               style="fill:url(#radialGradient13628);fill-opacity:1;stroke:none"
               id="rect13606"
               width="5"
               height="7"
               x="-10"
               y="-47"
               transform="scale(-1,-1)" />
            <rect
               style="fill:url(#linearGradient13630);fill-opacity:1;stroke:none"
               id="rect13608"
               width="28"
               height="7.0000005"
               x="10"
               y="40" />
          </g>
        </g>
        <path
           inkscape:connector-curvature="0"
           sodipodi:nodetypes="cccccccscc"
           id="path13610"
           transform="translate(0,60)"
           d="m -141.46875,-56.5 c -1.12122,0 -2.03125,0.910034 -2.03125,2.03125 l 0,36.9375 c 0,1.121217 0.91003,2.03125 2.03125,2.03125 l 30.9375,0 c 1.12121,0 2.03125,-0.910034 2.03125,-2.03125 0,-9.916667 0,-19.833333 0,-29.75 -0.25793,-2.465585 -1.63765,-4.292626 -3.28125,-5.9375 -1.6436,-1.644875 -3.38857,-3.233257 -5.9375,-3.28125 -7.91667,0 -15.83333,0 -23.75,0 z"
           style="fill:url(#radialGradient13632);fill-opacity:1;stroke:url(#linearGradient13634);stroke-width:1;stroke-miterlimit:4;display:inline" />
        <path
           transform="translate(-150,0)"
           d="M 8.53125,4 C 7.6730803,4 7,4.6730802 7,5.53125 l 0,36.9375 C 7,43.32692 7.6730802,44 8.53125,44 l 30.9375,0 C 40.326919,44 41,43.326918 41,42.46875 L 41,17.5 c 0,-1.39197 -0.486979,-4.299479 -2.34375,-6.15625 l -5,-5 C 31.799479,4.4869792 28.89197,4 27.5,4 L 8.53125,4 z"
           id="path13612"
           style="opacity:0.68016196;fill:url(#radialGradient13636);fill-opacity:1;stroke:none;display:inline"
           inkscape:original="M 8.53125 3.5 C 7.410033 3.5 6.5 4.4100329 6.5 5.53125 L 6.5 42.46875 C 6.5 43.589967 7.4100329 44.5 8.53125 44.5 L 39.46875 44.5 C 40.589967 44.5 41.5 43.589966 41.5 42.46875 C 41.5 42.46875 41.5 19 41.5 17.5 C 41.5 16 41 13 39 11 C 37 9 36 8 34 6 C 32 4 29 3.5 27.5 3.5 C 26 3.5 8.5312499 3.5 8.53125 3.5 z "
           inkscape:radius="-0.4861359"
           sodipodi:type="inkscape:offset" />
        <path
           inkscape:connector-curvature="0"
           id="path13618"
           transform="translate(0,60)"
           d="m -141.46875,-55.5 c -0.58317,0 -1.03125,0.448084 -1.03125,1.03125 l 0,36.9375 c 0,0.583165 0.44809,1.03125 1.03125,1.03125 l 30.9375,0 c 0.58317,0 1.03125,-0.448086 1.03125,-1.03125 0,0 0,-23.46875 0,-24.96875 0,-0.106586 -0.0242,-0.279716 -0.0312,-0.40625 0,-1.751998 0,-4.11182 0,-4.375 0,-0.757379 -0.33297,-2.519686 -1.34375,-3.53125 -1.31488,-1.315898 -1.96637,-1.9966 -3.28125,-3.3125 -1.01079,-1.011562 -2.8057,-1.34375 -3.5625,-1.34375 -0.34602,0 -2.39357,0 -4.375,0 -0.12653,-0.0071 -0.29966,-0.03125 -0.40625,-0.03125 -1.5,0 -18.96875,0 -18.96875,0 z"
           style="fill:none;stroke:url(#linearGradient13792);stroke-width:1;stroke-miterlimit:4;display:inline" />
      </g>
    </g>
    <g
       transform="translate(-36.006942,-8.993441)"
       id="g13771">
      <path
         inkscape:connector-curvature="0"
         style="fill:url(#radialGradient13784);fill-opacity:1;stroke:none;display:inline"
         d="m -81.704642,-47 c -0.895526,0 -0.02712,0.320785 0.866422,0.725993 0.893546,0.405209 2.364764,1.912143 1.83822,4.274007 4.56932,-0.707107 5.148198,2.177572 5.355088,2.925424 0.206889,0.747851 0.644778,1.68278 0.644778,0.786492 0.01827,-2.455844 -1.83467,-4.150551 -3.123145,-5.586113 -1.288476,-1.435561 -3.225477,-2.818136 -5.581363,-3.125803 z"
         id="path13676"
         sodipodi:nodetypes="ccccczc" />
      <path
         inkscape:connector-curvature="0"
         style="opacity:0.87854249;fill:url(#linearGradient13786);fill-opacity:1;stroke:none;display:inline"
         d="M -80.994821,-46.345411 C -80.400137,-46.345411 -80,-42.5 -80,-40 c 3,0 5.70366,0.451814 6,1 -0.20689,-0.747852 -0.538563,-3.773398 -5,-3 0.557517,-2.500797 -1.212993,-4.107705 -1.994821,-4.345411 z"
         id="path13678"
         sodipodi:nodetypes="ccccc" />
    </g>
  </g>
  <g
     id="gTagXML"
     transform="matrix(0.94444444,0,0,0.94444444,11,31.777777)">
    <path
       style="fill:#803300"
       d="M 36,14 35,13 35,1 36,0 36,14 z"
       id="path64"
       inkscape:connector-curvature="0" />
    <rect
       style="fill:#ff6600"
       width="34"
       height="12"
       x="1"
       y="1"
       id="rect66" />
    <path
       style="fill:#ffccaa"
       d="M 0,0 36,0 35,1 1,1 0,0 z"
       id="path68"
       inkscape:connector-curvature="0" />
    <path
       style="fill:#552200"
       d="M 0,14 36,14 35,13 1,13 0,14 z"
       id="path70"
       inkscape:connector-curvature="0" />
    <path
       style="fill:#ff9955"
       d="M 1,13 0,14 0,0 1,1 1,13 z"
       id="path72"
       inkscape:connector-curvature="0" />
    <use
       xlink:href="#pathTagXML"
       style="fill:#803300"
       transform="translate(1,1)"
       id="use74"
       x="0"
       y="0"
       width="275"
       height="312.5" />
    <use
       xlink:href="#pathTagXML"
       style="fill:#ffffff"
       id="use76"
       x="0"
       y="0"
       width="275"
       height="312.5" />
  </g>
</svg>
