<?xml version="1.0" encoding="UTF-8" standalone="no"?>
<svg
   xmlns:dc="http://purl.org/dc/elements/1.1/"
   xmlns:cc="http://creativecommons.org/ns#"
   xmlns:rdf="http://www.w3.org/1999/02/22-rdf-syntax-ns#"
   xmlns:svg="http://www.w3.org/2000/svg"
   xmlns="http://www.w3.org/2000/svg"
   xmlns:xlink="http://www.w3.org/1999/xlink"
   height="64"
   width="64"
   version="1.1"
   id="svg2"
   viewBox="0 0 64 63.999999">
  <metadata
     id="metadata16">
    <rdf:RDF>
      <cc:Work
         rdf:about="">
        <dc:format>image/svg+xml</dc:format>
        <dc:type
           rdf:resource="http://purl.org/dc/dcmitype/StillImage" />
        <dc:title></dc:title>
      </cc:Work>
    </rdf:RDF>
  </metadata>
  <defs
     id="defs14">
    <linearGradient
       gradientTransform="matrix(0.4226,-0.9063,0.9063,0.4226,4226.9761,-6584.5938)"
       gradientUnits="userSpaceOnUse"
       id="SVGID_1_"
       y2="-714.90741"
       x2="-7633.1528"
       y1="-803.36011"
       x1="-7708.7969">
      <stop
         offset="0"
         style="stop-color:#f69923;stop-opacity:1"
         id="stop4704" />
      <stop
         offset="0.3123"
         style="stop-color:#f79a23;stop-opacity:1"
         id="stop4706" />
      <stop
         offset="0.83829999"
         style="stop-color:#e97826;stop-opacity:1"
         id="stop4708" />
    </linearGradient>
    <linearGradient
       gradientTransform="matrix(0.4226,-0.9063,0.9063,0.4226,4226.9761,-6584.5938)"
       gradientUnits="userSpaceOnUse"
       id="SVGID_2_"
       y2="-813.12323"
       x2="-7728.9585"
       y1="-813.12323"
       x1="-8268.6387">
      <stop
         offset="0.3233"
         style="stop-color:#9e2064;stop-opacity:1"
         id="stop4729" />
      <stop
         offset="0.63020003"
         style="stop-color:#c92037;stop-opacity:1"
         id="stop4731" />
      <stop
         offset="0.75139999"
         style="stop-color:#cd2335;stop-opacity:1"
         id="stop4733" />
      <stop
         offset="1"
         style="stop-color:#e97826;stop-opacity:1"
         id="stop4735" />
    </linearGradient>
    <linearGradient
       gradientTransform="matrix(0.4226,-0.9063,0.9063,0.4226,4226.9761,-6584.5938)"
       gradientUnits="userSpaceOnUse"
       id="SVGID_3_"
       y2="-758.99402"
       x2="-7881.895"
       y1="-758.99402"
       x1="-8203.4922">
      <stop
         offset="0"
         style="stop-color:#282662;stop-opacity:1"
         id="stop4740" />
      <stop
         offset="0.0954839"
         style="stop-color:#662e8d;stop-opacity:1"
         id="stop4742" />
      <stop
         offset="0.78820002"
         style="stop-color:#9f2064;stop-opacity:1"
         id="stop4744" />
      <stop
         offset="0.94870001"
         style="stop-color:#cd2032;stop-opacity:1"
         id="stop4746" />
    </linearGradient>
    <linearGradient
       gradientTransform="matrix(0.4226,-0.9063,0.9063,0.4226,4226.9761,-6584.5938)"
       gradientUnits="userSpaceOnUse"
       id="SVGID_4_"
       y2="-818.15222"
       x2="-7698.647"
       y1="-818.15222"
       x1="-8238.3281">
      <stop
         offset="0.3233"
         style="stop-color:#9e2064;stop-opacity:1"
         id="stop4751" />
      <stop
         offset="0.63020003"
         style="stop-color:#c92037;stop-opacity:1"
         id="stop4753" />
      <stop
         offset="0.75139999"
         style="stop-color:#cd2335;stop-opacity:1"
         id="stop4755" />
      <stop
         offset="1"
         style="stop-color:#e97826;stop-opacity:1"
         id="stop4757" />
    </linearGradient>
    <linearGradient
       gradientTransform="matrix(0.4226,-0.9063,0.9063,0.4226,4226.9761,-6584.5938)"
       gradientUnits="userSpaceOnUse"
       id="SVGID_5_"
       y2="-810.85059"
       x2="-7915.3501"
       y1="-810.85059"
       x1="-8198.9678">
      <stop
         offset="0"
         style="stop-color:#282662;stop-opacity:1"
         id="stop4762" />
      <stop
         offset="0.0954839"
         style="stop-color:#662e8d;stop-opacity:1"
         id="stop4764" />
      <stop
         offset="0.78820002"
         style="stop-color:#9f2064;stop-opacity:1"
         id="stop4766" />
      <stop
         offset="0.94870001"
         style="stop-color:#cd2032;stop-opacity:1"
         id="stop4768" />
    </linearGradient>
    <linearGradient
       gradientTransform="matrix(0.4226,-0.9063,0.9063,0.4226,4226.9761,-6584.5938)"
       gradientUnits="userSpaceOnUse"
       id="SVGID_6_"
       y2="-762.29712"
       x2="-7698.647"
       y1="-762.29712"
       x1="-8238.3281">
      <stop
         offset="0.3233"
         style="stop-color:#9e2064;stop-opacity:1"
         id="stop4773" />
      <stop
         offset="0.63020003"
         style="stop-color:#c92037;stop-opacity:1"
         id="stop4775" />
      <stop
         offset="0.75139999"
         style="stop-color:#cd2335;stop-opacity:1"
         id="stop4777" />
      <stop
         offset="1"
         style="stop-color:#e97826;stop-opacity:1"
         id="stop4779" />
    </linearGradient>
    <linearGradient
       gradientTransform="matrix(0.4226,-0.9063,0.9063,0.4226,4226.9761,-6584.5938)"
       gradientUnits="userSpaceOnUse"
       id="SVGID_7_"
       y2="-765.07068"
       x2="-7732.125"
       y1="-765.07068"
       x1="-8271.8057">
      <stop
         offset="0.3233"
         style="stop-color:#9e2064;stop-opacity:1"
         id="stop4784" />
      <stop
         offset="0.63020003"
         style="stop-color:#c92037;stop-opacity:1"
         id="stop4786" />
      <stop
         offset="0.75139999"
         style="stop-color:#cd2335;stop-opacity:1"
         id="stop4788" />
      <stop
         offset="1"
         style="stop-color:#e97826;stop-opacity:1"
         id="stop4790" />
    </linearGradient>
    <linearGradient
       gradientTransform="matrix(0.4226,-0.9063,0.9063,0.4226,4226.9761,-6584.5938)"
       gradientUnits="userSpaceOnUse"
       id="SVGID_8_"
       y2="-745.68481"
       x2="-7698.647"
       y1="-745.68481"
       x1="-8238.3281">
      <stop
         offset="0.3233"
         style="stop-color:#9e2064;stop-opacity:1"
         id="stop4799" />
      <stop
         offset="0.63020003"
         style="stop-color:#c92037;stop-opacity:1"
         id="stop4801" />
      <stop
         offset="0.75139999"
         style="stop-color:#cd2335;stop-opacity:1"
         id="stop4803" />
      <stop
         offset="1"
         style="stop-color:#e97826;stop-opacity:1"
         id="stop4805" />
    </linearGradient>
    <linearGradient
       gradientTransform="matrix(0.4226,-0.9063,0.9063,0.4226,4226.9761,-6584.5938)"
       gradientUnits="userSpaceOnUse"
       id="SVGID_9_"
       y2="-747.58557"
       x2="-7698.647"
       y1="-747.58557"
       x1="-8238.3281">
      <stop
         offset="0.3233"
         style="stop-color:#9e2064;stop-opacity:1"
         id="stop4814" />
      <stop
         offset="0.63020003"
         style="stop-color:#c92037;stop-opacity:1"
         id="stop4816" />
      <stop
         offset="0.75139999"
         style="stop-color:#cd2335;stop-opacity:1"
         id="stop4818" />
      <stop
         offset="1"
         style="stop-color:#e97826;stop-opacity:1"
         id="stop4820" />
    </linearGradient>
    <linearGradient
       gradientTransform="matrix(0.4226,-0.9063,0.9063,0.4226,4226.9761,-6584.5938)"
       gradientUnits="userSpaceOnUse"
       id="SVGID_10_"
       y2="-747.9668"
       x2="-7815.856"
       y1="-747.9668"
       x1="-7935.1431">
      <stop
         offset="0.3233"
         style="stop-color:#9e2064;stop-opacity:1"
         id="stop4829" />
      <stop
         offset="0.63020003"
         style="stop-color:#c92037;stop-opacity:1"
         id="stop4831" />
      <stop
         offset="0.75139999"
         style="stop-color:#cd2335;stop-opacity:1"
         id="stop4833" />
      <stop
         offset="1"
         style="stop-color:#e97826;stop-opacity:1"
         id="stop4835" />
    </linearGradient>
    <linearGradient
       gradientTransform="matrix(-0.02319347,-0.11631035,0.11631035,-0.02319347,74.818302,-889.83497)"
       gradientUnits="userSpaceOnUse"
       xlink:href="#SVGID_1_"
       id="linearGradient7396-3"
       y2="-714.90741"
       x2="-7633.1528"
       y1="-803.36011"
       x1="-7708.7969" />
    <linearGradient
       gradientTransform="matrix(-0.02319347,-0.11631035,0.11631035,-0.02319347,74.818302,-889.83497)"
       gradientUnits="userSpaceOnUse"
       xlink:href="#SVGID_2_"
       id="linearGradient7398-3"
       y2="-813.12323"
       x2="-7728.9585"
       y1="-813.12323"
       x1="-8268.6387" />
    <linearGradient
       gradientTransform="matrix(-0.02319347,-0.11631035,0.11631035,-0.02319347,74.818302,-889.83497)"
       gradientUnits="userSpaceOnUse"
       xlink:href="#SVGID_3_"
       id="linearGradient7400-1"
       y2="-758.99402"
       x2="-7881.895"
       y1="-758.99402"
       x1="-8203.4922" />
    <linearGradient
       gradientTransform="matrix(-0.02319347,-0.11631035,0.11631035,-0.02319347,74.818302,-889.83497)"
       gradientUnits="userSpaceOnUse"
       xlink:href="#SVGID_4_"
       id="linearGradient7402-3"
       y2="-818.15222"
       x2="-7698.647"
       y1="-818.15222"
       x1="-8238.3281" />
    <linearGradient
       gradientTransform="matrix(-0.02319347,-0.11631035,0.11631035,-0.02319347,74.818302,-889.83497)"
       gradientUnits="userSpaceOnUse"
       xlink:href="#SVGID_5_"
       id="linearGradient7404-6"
       y2="-810.85059"
       x2="-7915.3501"
       y1="-810.85059"
       x1="-8198.9678" />
    <linearGradient
       gradientTransform="matrix(-0.02319347,-0.11631035,0.11631035,-0.02319347,74.818302,-889.83497)"
       gradientUnits="userSpaceOnUse"
       xlink:href="#SVGID_6_"
       id="linearGradient7406-2"
       y2="-762.29712"
       x2="-7698.647"
       y1="-762.29712"
       x1="-8238.3281" />
    <linearGradient
       gradientTransform="matrix(-0.02319347,-0.11631035,0.11631035,-0.02319347,74.818302,-889.83497)"
       gradientUnits="userSpaceOnUse"
       xlink:href="#SVGID_7_"
       id="linearGradient7408-5"
       y2="-765.07068"
       x2="-7732.125"
       y1="-765.07068"
       x1="-8271.8057" />
    <linearGradient
       gradientTransform="matrix(-0.02319347,-0.11631035,0.11631035,-0.02319347,74.818302,-889.83497)"
       gradientUnits="userSpaceOnUse"
       xlink:href="#SVGID_8_"
       id="linearGradient7410-9"
       y2="-745.68481"
       x2="-7698.647"
       y1="-745.68481"
       x1="-8238.3281" />
    <linearGradient
       gradientTransform="matrix(-0.02319347,-0.11631035,0.11631035,-0.02319347,74.818302,-889.83497)"
       gradientUnits="userSpaceOnUse"
       xlink:href="#SVGID_9_"
       id="linearGradient7412-2"
       y2="-747.58557"
       x2="-7698.647"
       y1="-747.58557"
       x1="-8238.3281" />
    <linearGradient
       gradientTransform="matrix(-0.02319347,-0.11631035,0.11631035,-0.02319347,74.818302,-889.83497)"
       gradientUnits="userSpaceOnUse"
       xlink:href="#SVGID_10_"
       id="linearGradient7414-4"
       y2="-747.9668"
       x2="-7815.856"
       y1="-747.9668"
       x1="-7935.1431" />
    <linearGradient
       gradientTransform="matrix(0.07373977,-0.11205927,0.11205927,0.07373977,859.4585,-779.05547)"
       gradientUnits="userSpaceOnUse"
       xlink:href="#SVGID_1_"
       id="linearGradient5344-0"
       y2="-714.90741"
       x2="-7633.1528"
       y1="-803.36011"
       x1="-7708.7969" />
    <linearGradient
       gradientTransform="matrix(0.07373977,-0.11205927,0.11205927,0.07373977,859.4585,-779.05547)"
       gradientUnits="userSpaceOnUse"
       xlink:href="#SVGID_2_"
       id="linearGradient5346-3"
       y2="-813.12323"
       x2="-7728.9585"
       y1="-813.12323"
       x1="-8268.6387" />
    <linearGradient
       gradientTransform="matrix(0.07373977,-0.11205927,0.11205927,0.07373977,859.4585,-779.05547)"
       gradientUnits="userSpaceOnUse"
       xlink:href="#SVGID_3_"
       id="linearGradient5348-6"
       y2="-758.99402"
       x2="-7881.895"
       y1="-758.99402"
       x1="-8203.4922" />
    <linearGradient
       gradientTransform="matrix(0.07373977,-0.11205927,0.11205927,0.07373977,859.4585,-779.05547)"
       gradientUnits="userSpaceOnUse"
       xlink:href="#SVGID_4_"
       id="linearGradient5350-1"
       y2="-818.15222"
       x2="-7698.647"
       y1="-818.15222"
       x1="-8238.3281" />
    <linearGradient
       gradientTransform="matrix(0.07373977,-0.11205927,0.11205927,0.07373977,859.4585,-779.05547)"
       gradientUnits="userSpaceOnUse"
       xlink:href="#SVGID_5_"
       id="linearGradient5352-0"
       y2="-810.85059"
       x2="-7915.3501"
       y1="-810.85059"
       x1="-8198.9678" />
    <linearGradient
       gradientTransform="matrix(0.07373977,-0.11205927,0.11205927,0.07373977,859.4585,-779.05547)"
       gradientUnits="userSpaceOnUse"
       xlink:href="#SVGID_6_"
       id="linearGradient5354-6"
       y2="-762.29712"
       x2="-7698.647"
       y1="-762.29712"
       x1="-8238.3281" />
    <linearGradient
       gradientTransform="matrix(0.07373977,-0.11205927,0.11205927,0.07373977,859.4585,-779.05547)"
       gradientUnits="userSpaceOnUse"
       xlink:href="#SVGID_7_"
       id="linearGradient5356-3"
       y2="-765.07068"
       x2="-7732.125"
       y1="-765.07068"
       x1="-8271.8057" />
    <linearGradient
       gradientTransform="matrix(0.07373977,-0.11205927,0.11205927,0.07373977,859.4585,-779.05547)"
       gradientUnits="userSpaceOnUse"
       xlink:href="#SVGID_8_"
       id="linearGradient5358-2"
       y2="-745.68481"
       x2="-7698.647"
       y1="-745.68481"
       x1="-8238.3281" />
    <linearGradient
       gradientTransform="matrix(0.07373977,-0.11205927,0.11205927,0.07373977,859.4585,-779.05547)"
       gradientUnits="userSpaceOnUse"
       xlink:href="#SVGID_9_"
       id="linearGradient5360-0"
       y2="-747.58557"
       x2="-7698.647"
       y1="-747.58557"
       x1="-8238.3281" />
    <linearGradient
       gradientTransform="matrix(0.07373977,-0.11205927,0.11205927,0.07373977,859.4585,-779.05547)"
       gradientUnits="userSpaceOnUse"
       xlink:href="#SVGID_10_"
       id="linearGradient5362-6"
       y2="-747.9668"
       x2="-7815.856"
       y1="-747.9668"
       x1="-7935.1431" />
  </defs>
  <g
     id="g3815"
     transform="matrix(0.70090021,0,0,0.70090021,-96.63283,-4.7524595)">
    <path
       d="m 159.65108,19.498641 c -0.45227,1.067538 -0.80841,3.388575 -0.97104,6.494432 l 3.49095,1.689547 c -0.0576,-2.223318 0.0257,-4.314708 0.24938,-6.214872 0.0133,-0.142192 0.026,-0.225086 0.026,-0.225086 -0.003,0.07588 -0.0229,0.14921 -0.026,0.225086 -0.0705,0.625523 -0.21895,2.588142 -0.016,6.13189 1.44499,-1.178239 3.52471,-3.175421 5.1697,-4.882955 -1.73763,-3.550151 -3.89937,-4.17032 -3.89937,-4.17032 0,0 -3.09226,-1.246568 -4.02357,0.952278 z"
       id="path7258-1"
       style="fill:url(#linearGradient7396-3)" />
    <path
       d="m 168.72999,37.080272 c 0.01,-0.007 0.0191,-0.01403 0.0217,-0.03061 l -0.19632,0.173507 c -0.003,0.01658 -0.0217,0.03061 -0.0242,0.04719 0.0695,-0.0657 0.13895,-0.131403 0.19886,-0.190086 z"
       id="path7260-5"
       style="fill:none" />
    <path
       d="m 170.86647,43.118212 c -0.0937,0.112894 -0.20394,0.223245 -0.31421,0.333595 0.11027,-0.11035 0.22053,-0.220701 0.31421,-0.333595 z"
       id="path7262-5"
       style="fill:none" />
    <path
       d="m 168.85966,61.671513 c -0.009,-0.05228 -0.0345,-0.107104 -0.0434,-0.159384 -0.29947,-1.089554 -0.58745,-2.143407 -0.86842,-3.187698 -0.30587,-1.158413 -0.59772,-2.297704 -0.87807,-3.401293 -0.28929,-1.155869 -0.56456,-2.292616 -0.82131,-3.384099 -0.27272,-1.153326 -0.52693,-2.261389 -0.76009,-3.340767 -0.1878,-0.877275 -0.37114,-1.72841 -0.54043,-2.560421 -0.0588,-0.280525 -0.11053,-0.551488 -0.16228,-0.822451 -0.10351,-0.541926 -0.20956,-1.067274 -0.3086,-1.58306 -0.0875,-0.480084 -0.17763,-0.94359 -0.26772,-1.407095 -0.0268,-0.156841 -0.0537,-0.313682 -0.0831,-0.453945 -0.004,-0.02614 -0.009,-0.05228 -0.0134,-0.07842 l -0.16763,0.152455 -0.34693,-0.172016 c 0.0115,0.0357 0.0134,0.07842 0.0249,0.114122 0.11378,0.696224 0.23457,1.402008 0.37193,2.110337 0.0741,0.401664 0.15527,0.812889 0.22685,1.231132 0.21596,1.136133 0.44149,2.265248 0.69061,3.406468 0.23956,1.148238 0.4957,2.29902 0.75438,3.433222 0.25167,1.124642 0.52246,2.235248 0.79325,3.345855 0.27079,1.110606 0.54412,2.204634 0.82701,3.291644 0.29184,1.139291 0.58623,2.262002 0.89272,3.361118 0.0639,0.247366 0.13474,0.504294 0.20816,0.744644 0.24456,0.894467 0.48464,1.762795 0.73429,2.624105 l 0.5593,0.280962 0.18675,-0.16649 c -0.004,-0.02614 -0.009,-0.05228 -0.023,-0.0714 -0.37026,-1.12587 -0.68377,-2.234546 -0.98579,-3.307522 z"
       id="path7264-4"
       style="fill:none" />
    <path
       d="m 170.46367,43.531543 0,0 c 0,0 0,0 0,0 0,0 0,0 0,0 z"
       id="path7266-7"
       style="fill:none" />
    <path
       d="m 171.75147,46.308454 c -0.16316,0.178595 -0.33333,0.347629 -0.50351,0.516663 0,0 0,0 0,0 0.0886,-0.07974 0.17974,-0.176051 0.26132,-0.265349 0.0886,-0.07974 0.17017,-0.169034 0.24219,-0.251314 z"
       id="path7268-6"
       style="fill:#be202e" />
    <path
       d="m 171.75147,46.308454 c -0.16316,0.178595 -0.33333,0.347629 -0.50351,0.516663 0,0 0,0 0,0 0.0886,-0.07974 0.17974,-0.176051 0.26132,-0.265349 0.0886,-0.07974 0.17017,-0.169034 0.24219,-0.251314 z"
       id="path7270-5"
       style="opacity:0.35;fill:#be202e" />
    <path
       d="m 170.47323,43.524526 c 0,0 0,0 0,0 -0.01,0.007 -0.01,0.007 0,0 0.0287,-0.02105 0.0504,-0.05167 0.079,-0.07272 0.11027,-0.11035 0.22053,-0.220701 0.31421,-0.333595 -0.12237,0.133947 -0.26131,0.26535 -0.39324,0.406314 l 0,0 0,0 z"
       id="path7272-6"
       style="fill:#be202e" />
    <path
       d="m 170.47323,43.524526 c 0,0 0,0 0,0 -0.01,0.007 -0.01,0.007 0,0 0.0287,-0.02105 0.0504,-0.05167 0.079,-0.07272 0.11027,-0.11035 0.22053,-0.220701 0.31421,-0.333595 -0.12237,0.133947 -0.26131,0.26535 -0.39324,0.406314 l 0,0 0,0 z"
       id="path7274-9"
       style="opacity:0.35;fill:#be202e" />
    <path
       d="m 163.08433,37.987289 c -0.16115,-1.161659 -0.30825,-2.304196 -0.44132,-3.427609 -0.135,-1.166133 -0.23939,-2.310599 -0.32018,-3.44296 -0.006,-0.06886 -0.0128,-0.137718 -0.0122,-0.197016 -0.0763,-1.106221 -0.13158,-2.183757 -0.15623,-3.239628 l -3.48393,-1.679985 c -0.007,0.211051 -0.0234,0.42912 -0.0329,0.65675 -0.0347,0.834644 -0.0605,1.721568 -0.0678,2.653754 -0.009,1.050783 0.001,2.146828 0.0204,3.295154 0.0247,1.05587 0.0678,2.157004 0.125,3.277259 0.0565,0.958941 0.12,1.927444 0.19754,2.915069 0.002,0.04272 0.006,0.06886 0.008,0.111578 l 4.66058,2.36112 c -0.16175,-1.102361 -0.33307,-2.197704 -0.49736,-3.283486 z"
       id="path7286-3"
       style="fill:url(#linearGradient7398-3)" />
    <path
       d="m 169.97001,65.549645 c 0.25666,0.870871 0.5178,1.767883 0.80254,2.676999 0.007,0.0096 0.004,0.02614 0.0115,0.0357 0.0389,0.133244 0.0709,0.256928 0.11939,0.383155 0.18579,0.613943 0.36517,1.159027 0.75078,2.406036 0.75359,-0.155877 1.6942,0.183594 2.6763,0.63973 -0.63026,-0.758503 -1.50271,-1.265692 -2.54525,-1.383234 2.85446,-1.903762 4.73251,-4.356116 4.46865,-7.28136 -0.0282,-0.258858 -0.0633,-0.527277 -0.11509,-0.79824 -0.0448,1.121571 -0.50867,1.932794 -1.87472,2.817702 0,0 -0.01,0.007 -0.01,0.007 0,0 0.01,-0.007 0.01,-0.007 1.29026,-2.271039 1.64543,-3.811643 1.49288,-5.803472 -0.0378,-0.472453 -0.0967,-0.97359 -0.18359,-1.512972 -0.41263,2.965682 -2.00525,4.884882 -4.33462,6.020754 l -1.41306,1.301923 c 0.0504,0.168946 0.0939,0.328331 0.1443,0.497277 z"
       id="path7298-7"
       style="fill:url(#linearGradient7400-1)" />
    <path
       d="m 168.15379,61.57169 c -0.29693,-1.106133 -0.59132,-2.228844 -0.89272,-3.361117 -0.28289,-1.08701 -0.55622,-2.181038 -0.82701,-3.291644 -0.27079,-1.110607 -0.53202,-2.228231 -0.79325,-3.345855 -0.2657,-1.143764 -0.51482,-2.284984 -0.75438,-3.433222 -0.24211,-1.131659 -0.46509,-2.277353 -0.69061,-3.406468 -0.0811,-0.411226 -0.15527,-0.81289 -0.22685,-1.231133 -0.13035,-0.698767 -0.25114,-1.404551 -0.37193,-2.110336 -0.0115,-0.0357 -0.0134,-0.07842 -0.0249,-0.114122 l -4.63444,-2.365594 c 0.006,0.06886 0.0198,0.147279 0.0167,0.223156 0.0935,1.049467 0.18448,2.115512 0.3086,3.186646 0.12158,1.087712 0.25974,2.177968 0.42149,3.280329 0.13746,0.928941 0.28448,1.850864 0.43851,2.782349 0.0313,0.182982 0.0696,0.375524 0.10097,0.558505 0.21342,1.152712 0.44149,2.265248 0.68929,3.304452 0.2772,1.179465 0.57412,2.285598 0.87421,3.315854 0.20175,0.675785 0.39903,1.32543 0.6014,1.941917 0.17491,0.518944 0.3664,1.040431 0.55088,1.552357 0.44298,1.204904 0.93377,2.374721 1.4628,3.516467 l 4.68418,2.373226 c -0.24965,-0.86131 -0.48017,-1.736655 -0.7343,-2.624105 -0.0639,-0.247367 -0.12771,-0.494734 -0.19859,-0.751662 z"
       id="path7310-4"
       style="fill:url(#linearGradient7402-3)" />
    <path
       d="m 164.47206,62.729142 c 0.64517,1.380166 1.35727,2.711209 2.15543,3.979095 0.0281,0.03825 0.0536,0.09307 0.0817,0.131315 -1.29455,-0.521048 -3.58857,-0.279118 -3.57199,-0.276574 2.36841,0.821571 4.4455,1.827528 5.75575,3.352166 -0.52069,0.573417 -1.49542,1.009293 -2.72077,1.364291 1.6942,0.183594 2.63902,-0.112633 2.98455,-0.263246 -0.88535,0.738066 -1.38087,2.087443 -1.81578,3.539452 0.99657,-1.62885 1.98507,-2.70744 2.9477,-3.119719 1.40587,4.661634 3.09946,9.715284 4.97551,15.017528 0.31736,-0.409471 0.35289,-0.862188 0.22008,-1.323764 -0.34596,-0.952449 -2.57692,-7.259423 -5.12375,-15.820856 -0.0734,-0.240349 -0.13728,-0.487716 -0.21772,-0.737626 -0.023,-0.0714 -0.0389,-0.133245 -0.0619,-0.204648 -0.26114,-0.897011 -0.52675,-1.820163 -0.79684,-2.769455 -0.0594,-0.221226 -0.12132,-0.425874 -0.1807,-0.6471 0,0 -0.007,-0.0096 -0.007,-0.0096 l -4.68418,-2.373225 c 0.016,0.06184 0.0345,0.107104 0.06,0.161928 z"
       id="path7322-5"
       style="fill:url(#linearGradient7404-6)" />
    <path
       d="m 164.12625,41.3713 c 0.0268,0.156841 0.0562,0.297104 0.0831,0.453945 0.0901,0.463505 0.17062,0.934029 0.26772,1.407095 0.099,0.515786 0.20509,1.041134 0.3086,1.58306 0.0517,0.270963 0.10351,0.541926 0.16228,0.822451 0.16929,0.832011 0.35263,1.683146 0.54043,2.560421 0.23316,1.079378 0.48737,2.187441 0.76009,3.340767 0.25675,1.091483 0.53202,2.22823 0.82131,3.384099 0.28035,1.103589 0.56518,2.233319 0.87807,3.401293 0.27395,1.03473 0.56895,2.098144 0.86842,3.187698 0.009,0.05228 0.0345,0.107104 0.0434,0.159384 0.30202,1.072976 0.61553,2.181652 0.94307,3.309452 0.004,0.02614 0.009,0.05228 0.023,0.0714 l 1.41306,-1.301923 c -0.0357,0.01149 -0.0644,0.03254 -0.10965,0.05105 1.67692,-1.583851 3.1141,-4.757164 3.4426,-7.616971 0.15123,-1.317359 0.13728,-2.719455 -0.0438,-4.249007 -0.13053,-1.139992 -0.36246,-2.337966 -0.68114,-3.634098 -0.27781,-1.120168 -0.62132,-2.309809 -1.04009,-3.561905 -0.25929,0.528681 -0.62762,1.049116 -1.07885,1.556832 -0.0816,0.0893 -0.16315,0.178596 -0.24473,0.267894 -0.0816,0.0893 -0.17018,0.169034 -0.26132,0.265349 l 0,0 0,0 c 0,0 0,0 0,0 1.23684,-1.922883 1.38394,-3.987519 1.0171,-6.131013 -0.22483,0.635785 -0.66631,1.577709 -1.39859,2.424108 -0.0937,0.112894 -0.20394,0.223244 -0.31421,0.333595 -0.0287,0.02105 -0.0503,0.05167 -0.0886,0.07974 l 0,0 0,0 c 0,0 0,0 0,0 0,0 0,0 0,0 l 0,0 c 0.41035,-0.68368 0.71359,-1.332887 0.9078,-1.990339 0.0465,-0.137104 0.0764,-0.276752 0.10631,-0.416401 0.0497,-0.212981 0.0827,-0.428506 0.11579,-0.644031 0.0133,-0.142192 0.0337,-0.274822 0.047,-0.417014 0.0247,-0.327104 0.0259,-0.666312 -0.006,-1.010608 -0.008,-0.111578 -0.01,-0.213595 -0.0275,-0.318156 -0.0268,-0.156841 -0.0467,-0.30412 -0.0761,-0.444383 -0.11184,-0.653504 -0.2364,-1.224114 -0.36412,-1.718848 -0.0639,-0.247366 -0.12325,-0.468593 -0.18518,-0.673241 -0.03,-0.08096 -0.0434,-0.159384 -0.0734,-0.240349 -0.076,-0.22377 -0.13789,-0.428418 -0.20491,-0.599908 -0.097,-0.252454 -0.18509,-0.452628 -0.25719,-0.590961 l 0,0 0,0 c -0.0223,0.08991 -0.0541,0.186841 -0.10255,0.281227 -0.29175,0.684908 -0.97043,1.624376 -1.58928,2.284548 l 1.3028,-1.191573 -1.3028,1.191573 c -0.01,0.007 -0.0191,0.01403 -0.0217,0.03061 -0.0599,0.05868 -0.12938,0.124386 -0.19184,0.199648 0.003,-0.01658 0.0217,-0.03061 0.0242,-0.04719 l -4.45207,4.076732 c 0.0376,0.03123 0.0421,0.05737 0.0396,0.07395 z"
       id="path7334-2"
       style="fill:url(#linearGradient7406-2)" />
    <path
       d="m 162.40432,27.599638 c 0.0539,0.97552 0.13983,2.074723 0.25062,3.288048 0.006,0.06886 0.006,0.128157 0.0217,0.189999 0.10053,1.059028 0.23105,2.199021 0.39605,3.446118 0.14071,1.073677 0.29737,2.209195 0.49106,3.43524 0.15982,1.059642 0.35473,2.16709 0.55605,3.343398 l 4.45207,-4.076732 c 0.92833,-1.681744 1.13131,-2.728141 1.11867,-4.02822 -0.006,-0.34877 -0.0258,-0.716662 -0.0527,-1.094116 -0.0712,-1.139378 -0.20816,-2.34823 -0.40245,-3.514976 -0.18281,-1.131045 -0.40641,-2.217441 -0.66246,-3.14761 -0.16219,-0.601838 -0.33456,-1.137361 -0.51008,-1.597007 -0.15957,-0.397804 -0.32421,-0.762451 -0.49141,-1.110518 -1.64244,1.690955 -3.72216,3.688137 -5.16715,4.866376 z"
       id="path7346-5"
       style="fill:url(#linearGradient7408-5)" />
    <path
       d="m 171.5163,46.569329 c -0.0816,0.0893 -0.17018,0.169035 -0.26132,0.26535 l 0,0 c 0.0816,-0.0893 0.16316,-0.178596 0.26132,-0.26535 z"
       id="path7348-4"
       style="fill:#be202e" />
    <path
       d="m 171.5163,46.569329 c -0.0816,0.0893 -0.17018,0.169035 -0.26132,0.26535 l 0,0 c 0.0816,-0.0893 0.16316,-0.178596 0.26132,-0.26535 z"
       id="path7350-7"
       style="opacity:0.35;fill:#be202e" />
    <path
       d="m 171.5163,46.569329 c -0.0816,0.0893 -0.17018,0.169035 -0.26132,0.26535 l 0,0 c 0.0816,-0.0893 0.16316,-0.178596 0.26132,-0.26535 z"
       id="path7362-4"
       style="fill:url(#linearGradient7410-9)" />
    <path
       d="m 170.46367,43.531543 c 0.0287,-0.02105 0.0503,-0.05167 0.0886,-0.07974 -0.0287,0.02105 -0.0503,0.05167 -0.0886,0.07974 l 0,0 z"
       id="path7364-4"
       style="fill:#be202e" />
    <path
       d="m 170.46367,43.531543 c 0.0287,-0.02105 0.0503,-0.05167 0.0886,-0.07974 -0.0287,0.02105 -0.0503,0.05167 -0.0886,0.07974 l 0,0 z"
       id="path7366-3"
       style="opacity:0.35;fill:#be202e" />
    <path
       d="m 170.46367,43.531543 c 0.0287,-0.02105 0.0503,-0.05167 0.0886,-0.07974 -0.0287,0.02105 -0.0503,0.05167 -0.0886,0.07974 l 0,0 z"
       id="path7378-0"
       style="fill:url(#linearGradient7412-2)" />
    <path
       d="m 170.47323,43.524526 c 0,0 0,0 0,0 l 0,0 0,0 0,0 c 0,0 0,0 0,0 z"
       id="path7380-7"
       style="fill:#be202e" />
    <path
       d="m 170.47323,43.524526 c 0,0 0,0 0,0 l 0,0 0,0 0,0 c 0,0 0,0 0,0 z"
       id="path7382-8"
       style="opacity:0.35;fill:#be202e" />
    <path
       d="m 170.47323,43.524526 c 0,0 0,0 0,0 l 0,0 0,0 0,0 c 0,0 0,0 0,0 z"
       id="path7394-6"
       style="fill:url(#linearGradient7414-4)" />
    <path
       d="m 205.26673,20.373256 c -1.21227,0.500041 -3.34307,2.085555 -5.94165,4.456606 l 1.46788,4.133735 c 1.72008,-1.835596 3.44881,-3.452989 5.13859,-4.80493 0.12371,-0.103874 0.19981,-0.160499 0.19981,-0.160499 -0.0628,0.05857 -0.13698,0.101926 -0.19981,0.160499 -0.55376,0.447521 -2.23258,1.909538 -4.88482,4.923515 2.09937,0.199572 5.36038,0.244189 8.04129,0.176573 1.42185,-4.238501 0.17435,-6.455292 0.17435,-6.455292 0,0 -1.49889,-3.460369 -3.99564,-2.430207 z"
       id="path4710-8"
       style="fill:url(#linearGradient5344-0)" />
    <path
       d="m 198.60644,41.740105 c 0.0133,0.0019 0.0265,0.0039 0.0418,-0.0074 l -0.29589,-0.0163 c -0.0152,0.01133 -0.0418,0.0074 -0.057,0.01876 0.10812,0.0023 0.21625,0.0046 0.31111,0.005 z"
       id="path4712-8"
       style="fill:none" />
    <path
       d="m 195.52908,48.298217 c -0.16512,0.01645 -0.34155,0.01768 -0.51799,0.0189 0.17644,-0.0012 0.35287,-0.0025 0.51799,-0.0189 z"
       id="path4714-4"
       style="fill:none" />
    <path
       d="m 179.1726,61.639456 c 0.0343,-0.0492 0.0574,-0.11361 0.0917,-0.162806 0.62459,-1.115044 1.23007,-2.192219 1.8336,-3.25612 0.67415,-1.175565 1.3444,-2.324585 1.99553,-3.435735 0.68548,-1.160345 1.36705,-2.294145 2.02757,-3.376802 0.6968,-1.145124 1.37253,-2.239107 2.04242,-3.293271 0.54583,-0.855436 1.07448,-1.686274 1.59925,-2.490566 0.17557,-0.272522 0.34919,-0.531771 0.52281,-0.791021 0.34725,-0.518498 0.67927,-1.025671 1.00935,-1.519572 0.31096,-0.456031 0.6067,-0.900736 0.90245,-1.345442 0.103,-0.147586 0.20601,-0.295172 0.29379,-0.431433 0.0172,-0.0246 0.0343,-0.04919 0.0515,-0.07379 l -0.25607,-0.01046 -0.14261,-0.414117 c -0.0191,0.03787 -0.0515,0.07379 -0.0706,0.111663 -0.46157,0.650865 -0.9251,1.315002 -1.37729,1.994359 -0.25946,0.382237 -0.52087,0.777748 -0.79555,1.17131 -0.72883,1.086192 -1.44438,2.174332 -2.15055,3.290964 -0.71945,1.114685 -1.42757,2.24459 -2.12048,3.36317 -0.69095,1.105307 -1.35536,2.214509 -2.01977,3.323711 -0.66441,1.109203 -1.3136,2.20708 -1.94952,3.306904 -0.67025,1.14902 -1.32528,2.286715 -1.95182,3.415032 -0.14513,0.249871 -0.29221,0.513016 -0.42406,0.764835 -0.5138,0.914368 -1.01043,1.804139 -1.49379,2.695857 l 0.22701,0.67055 0.28262,0.01435 c 0.0172,-0.0246 0.0343,-0.04919 0.0382,-0.07574 0.59646,-1.200523 1.22495,-2.342112 1.83432,-3.445832 z"
       id="path4716-3"
       style="fill:none" />
    <path
       d="m 194.87641,48.310919 0,0 c 0,0 0,0 0,0 0,0 0,0 0,0 z"
       id="path4718-1"
       style="fill:none" />
    <path
       d="m 193.7068,51.569558 c -0.27324,0.01414 -0.54453,0.01501 -0.81583,0.01588 0,0 0,0 0,0 0.13468,0.0062 0.28457,0.0011 0.42119,-0.006 0.13467,0.0062 0.2713,-8.68e-4 0.39464,-0.0099 z"
       id="path4720-4"
       style="fill:#be202e" />
    <path
       d="m 193.7068,51.569558 c -0.27324,0.01414 -0.54453,0.01501 -0.81583,0.01588 0,0 0,0 0,0 0.13468,0.0062 0.28457,0.0011 0.42119,-0.006 0.13467,0.0062 0.2713,-8.68e-4 0.39464,-0.0099 z"
       id="path4722-9"
       style="opacity:0.35;fill:#be202e" />
    <path
       d="m 194.88969,48.312867 c 0,0 0,0 0,0 -0.0133,-0.0019 -0.0133,-0.0019 0,0 0.0398,0.0058 0.0816,-0.0016 0.1214,0.0043 0.17644,-0.0012 0.35287,-0.0025 0.51799,-0.0189 -0.20493,0.01061 -0.42119,0.006 -0.63939,0.01465 l 0,0 0,0 z"
       id="path4724-2"
       style="fill:#be202e" />
    <path
       d="m 194.88969,48.312867 c 0,0 0,0 0,0 -0.0133,-0.0019 -0.0133,-0.0019 0,0 0.0398,0.0058 0.0816,-0.0016 0.1214,0.0043 0.17644,-0.0012 0.35287,-0.0025 0.51799,-0.0189 -0.20493,0.01061 -0.42119,0.006 -0.63939,0.01465 l 0,0 0,0 z"
       id="path4726-0"
       style="opacity:0.35;fill:#be202e" />
    <path
       d="m 193.34095,37.984676 c 0.79324,-1.063182 1.58259,-2.099819 2.36804,-3.109911 0.81783,-1.046015 1.6431,-2.050265 2.47775,-3.026022 0.0496,-0.06052 0.0991,-0.121041 0.14672,-0.168288 0.81747,-0.95116 1.62911,-1.862502 2.44818,-2.732078 l -1.46984,-4.120462 c -0.17326,0.164394 -0.35979,0.32684 -0.54828,0.502559 -0.6911,0.644303 -1.41654,1.337801 -2.16304,2.082441 -0.84172,0.839137 -1.7045,1.729416 -2.60161,2.668891 -0.81907,0.869576 -1.65919,1.790295 -2.50322,2.73756 -0.71642,0.816846 -1.43479,1.646964 -2.15705,2.503628 -0.0324,0.03592 -0.0496,0.06052 -0.0819,0.09644 l 1.87588,5.603665 c 0.74564,-1.015934 1.478,-2.033816 2.20841,-3.038426 z"
       id="path4737-6"
       style="fill:url(#linearGradient5346-3)" />
    <path
       d="m 176.98519,65.643604 c -0.4853,0.904991 -0.98777,1.834579 -1.48087,2.79266 -0.002,0.01327 -0.0172,0.0246 -0.0191,0.03787 -0.0745,0.138208 -0.14708,0.263144 -0.20832,0.4033 -0.33823,0.641847 -0.6269,1.223173 -1.30725,2.533411 0.7305,0.47326 1.21799,1.49387 1.64619,2.641364 0.0953,-1.11136 -0.20409,-2.212834 -0.94996,-3.135774 3.81046,0.735362 7.27076,0.253332 9.38251,-2.311177 0.183,-0.230756 0.36795,-0.474786 0.54157,-0.734035 -0.92719,0.86727 -1.94513,1.151774 -3.7479,0.77879 0,0 -0.0133,-0.0019 -0.0133,-0.0019 0,0 0.0133,0.0019 0.0133,0.0019 2.84306,-0.80309 4.35302,-1.761109 5.81277,-3.485761 0.34494,-0.410371 0.69572,-0.860559 1.05429,-1.363837 -2.68847,2.05958 -5.49539,2.339198 -8.27304,1.402862 l -2.17194,-0.07464 c -0.0936,0.176078 -0.18531,0.338884 -0.27894,0.514963 z"
       id="path4748-8"
       style="fill:url(#linearGradient5348-6)" />
    <path
       d="m 178.68367,60.998267 c 0.63982,-1.126369 1.29485,-2.264064 1.95183,-3.415031 0.63591,-1.099825 1.2851,-2.197702 1.94951,-3.306904 0.66441,-1.109202 1.34209,-2.216457 2.01978,-3.323712 0.69485,-1.131852 1.40102,-2.248484 2.12047,-3.363169 0.70423,-1.10336 1.435,-2.202825 2.15055,-3.290964 0.26141,-0.39551 0.52087,-0.777748 0.79555,-1.171311 0.45025,-0.666084 0.91377,-1.330221 1.37729,-1.994358 0.0191,-0.03787 0.0515,-0.07379 0.0706,-0.111663 l -1.85129,-5.586498 c -0.0495,0.06052 -0.10105,0.134314 -0.16388,0.192887 -0.75855,0.919131 -1.53231,1.849588 -2.28343,2.810485 -0.76633,0.972221 -1.52134,1.959663 -2.26698,2.975598 -0.62741,0.857023 -1.24154,1.715994 -1.85762,2.588237 -0.12018,0.172184 -0.2423,0.35764 -0.36247,0.529824 -0.74404,1.097517 -1.44438,2.174332 -2.07056,3.207794 -0.71396,1.169722 -1.35377,2.296092 -1.93076,3.363888 -0.37451,0.704315 -0.73185,1.384032 -1.05875,2.041098 -0.2715,0.556729 -0.53168,1.128677 -0.78992,1.687353 -0.60071,1.321923 -1.13506,2.653583 -1.61632,3.993033 l 1.88526,5.632158 c 0.48336,-0.891718 0.99326,-1.779542 1.49379,-2.695857 0.14513,-0.249872 0.29026,-0.499743 0.43733,-0.762888 z"
       id="path4759-9"
       style="fill:url(#linearGradient5350-1)" />
    <path
       d="m 174.80021,59.004828 c -0.5772,1.623656 -1.06149,3.260945 -1.42632,4.915762 -0.008,0.05309 -0.0308,0.117505 -0.0386,0.170596 -0.62815,-1.448 -2.66709,-3.075886 -2.65577,-3.060666 1.25385,2.543123 2.12669,5.003224 1.97011,7.271605 -0.87476,0.04791 -2.00574,-0.375651 -3.27422,-1.06343 1.21799,1.49387 2.21394,2.00608 2.61176,2.159359 -1.29912,-0.109269 -2.77013,0.583299 -4.27389,1.406645 2.09641,-0.519454 3.74913,-0.602352 4.85162,-0.169418 -2.57201,4.86968 -5.22387,10.283535 -7.92636,16.042478 0.58082,-0.07748 0.96911,-0.413695 1.22893,-0.890788 0.47823,-1.041611 3.69329,-7.89136 8.44528,-16.806953 0.13186,-0.25182 0.27699,-0.501691 0.41079,-0.766783 0.0382,-0.07574 0.0745,-0.138208 0.11274,-0.213949 0.50247,-0.929588 1.02211,-1.883774 1.55892,-2.862558 0.12796,-0.225273 0.24071,-0.439222 0.36867,-0.664496 0,0 0.002,-0.01327 0.002,-0.01327 l -1.88527,-5.632157 c -0.0363,0.06247 -0.0573,0.11361 -0.0804,0.178026 z"
       id="path4770-2"
       style="fill:url(#linearGradient5352-0)" />
    <path
       d="m 191.49105,41.536688 c -0.103,0.147586 -0.19079,0.283847 -0.29379,0.431433 -0.29575,0.444706 -0.60476,0.887464 -0.90245,1.345442 -0.33008,0.493901 -0.6621,1.001074 -1.00935,1.519572 -0.17362,0.25925 -0.34724,0.518499 -0.52281,0.791021 -0.52477,0.804292 -1.05342,1.63513 -1.59925,2.490566 -0.66989,1.054164 -1.34562,2.148147 -2.04242,3.293271 -0.66052,1.082657 -1.34209,2.216457 -2.02757,3.376802 -0.65113,1.11115 -1.31944,2.246897 -1.99553,3.435735 -0.60158,1.050629 -1.20901,2.141076 -1.8336,3.25612 -0.0343,0.0492 -0.0573,0.113611 -0.0917,0.162806 -0.60937,1.10372 -1.23786,2.245309 -1.87024,3.413444 -0.0172,0.0246 -0.0343,0.0492 -0.0382,0.07574 l 2.17194,0.07464 c -0.0379,-0.01911 -0.0777,-0.02496 -0.12883,-0.04602 2.60834,0.05732 6.28655,-1.355378 8.82318,-3.396563 1.1684,-0.940343 2.27117,-2.080134 3.34068,-3.455296 0.80067,-1.021417 1.56577,-2.170077 2.33903,-3.466683 0.66636,-1.122475 1.33502,-2.353078 1.99272,-3.693756 -0.62878,0.219581 -1.33879,0.345893 -2.10542,0.396106 -0.13662,0.0071 -0.27325,0.01414 -0.40987,0.02121 -0.13662,0.0071 -0.27129,8.69e-4 -0.42118,0.006 l 0,0 0,0 c 0,0 0,0 0,0 2.52343,-0.565263 4.28225,-2.110451 5.68998,-4.127459 -0.68613,0.333191 -1.78991,0.740684 -3.05188,0.840241 -0.16511,0.01645 -0.34155,0.01768 -0.51799,0.0189 -0.0398,-0.0058 -0.0816,0.0016 -0.13467,-0.0062 l 0,0 0,0 c 0,0 0,0 0,0 0,0 0,0 0,0 l 0,0 c 0.87353,-0.224344 1.63345,-0.506033 2.31215,-0.880989 0.14636,-0.07343 0.28139,-0.162087 0.41643,-0.25074 0.20918,-0.132006 0.40704,-0.279233 0.6049,-0.426459 0.12371,-0.103873 0.24547,-0.194474 0.36918,-0.298347 0.2798,-0.24367 0.55023,-0.515832 0.798,-0.818434 0.0819,-0.09644 0.16194,-0.179614 0.23061,-0.278005 0.103,-0.147586 0.20406,-0.281899 0.29185,-0.41816 0.42918,-0.614942 0.78227,-1.173258 1.07253,-1.673001 0.14513,-0.249871 0.27309,-0.475145 0.38584,-0.689094 0.0402,-0.08901 0.0917,-0.162806 0.13185,-0.251819 0.11664,-0.240494 0.22938,-0.454443 0.31168,-0.645742 0.12248,-0.280311 0.21063,-0.511428 0.26249,-0.680076 l 0,0 0,0 c -0.0894,0.05468 -0.19202,0.107408 -0.30599,0.144919 -0.77903,0.319559 -2.07181,0.536621 -3.09451,0.576377 l 1.99549,0.07586 -1.99549,-0.07586 c -0.0133,-0.0019 -0.0266,-0.0039 -0.0418,0.0074 -0.0949,-3.59e-4 -0.20298,-0.0027 -0.31306,0.0083 0.0152,-0.01133 0.0418,-0.0074 0.057,-0.01876 l -6.82303,-0.255428 c 0.005,0.05504 -0.0117,0.07963 -0.0269,0.09096 z"
       id="path4781-6"
       style="fill:url(#linearGradient5354-6)" />
    <path
       d="m 201.04673,29.082182 c -0.73164,0.828171 -1.53585,1.781278 -2.41067,2.846048 -0.0496,0.06052 -0.0972,0.107768 -0.13345,0.170236 -0.76049,0.932404 -1.56116,1.953821 -2.41918,3.088849 -0.73979,0.976117 -1.51586,2.014702 -2.33406,3.155572 -0.71324,0.980011 -1.43623,2.026386 -2.20876,3.133281 l 6.82303,0.255428 c 2.08349,-0.616257 3.07828,-1.297351 4.10105,-2.353971 0.27237,-0.285435 0.54864,-0.597415 0.82685,-0.922667 0.84792,-0.97381 1.69815,-2.055747 2.46874,-3.14937 0.75147,-1.055752 1.43464,-2.107969 1.96755,-3.060207 0.3476,-0.613354 0.63433,-1.181408 0.85822,-1.690888 0.18762,-0.447013 0.34479,-0.871375 0.48675,-1.284413 -2.66569,0.05629 -5.9267,0.01167 -8.02607,-0.187898 z"
       id="path4792-6"
       style="fill:url(#linearGradient5356-3)" />
    <path
       d="m 193.31021,51.592717 c -0.13662,0.0071 -0.27129,8.68e-4 -0.42118,0.006 l 0,0 c 0.13662,-0.0071 0.27324,-0.01414 0.42118,-0.006 z"
       id="path4794-4"
       style="fill:#be202e" />
    <path
       d="m 193.31021,51.592717 c -0.13662,0.0071 -0.27129,8.68e-4 -0.42118,0.006 l 0,0 c 0.13662,-0.0071 0.27324,-0.01414 0.42118,-0.006 z"
       id="path4796-9"
       style="opacity:0.35;fill:#be202e" />
    <path
       d="m 193.31021,51.592717 c -0.13662,0.0071 -0.27129,8.68e-4 -0.42118,0.006 l 0,0 c 0.13662,-0.0071 0.27324,-0.01414 0.42118,-0.006 z"
       id="path4807-5"
       style="fill:url(#linearGradient5358-2)" />
    <path
       d="m 194.87641,48.310919 c 0.0398,0.0058 0.0816,-0.0016 0.13468,0.0062 -0.0398,-0.0058 -0.0816,0.0016 -0.13468,-0.0062 l 0,0 z"
       id="path4809-0"
       style="fill:#be202e" />
    <path
       d="m 194.87641,48.310919 c 0.0398,0.0058 0.0816,-0.0016 0.13468,0.0062 -0.0398,-0.0058 -0.0816,0.0016 -0.13468,-0.0062 l 0,0 z"
       id="path4811-4"
       style="opacity:0.35;fill:#be202e" />
    <path
       d="m 194.87641,48.310919 c 0.0398,0.0058 0.0816,-0.0016 0.13468,0.0062 -0.0398,-0.0058 -0.0816,0.0016 -0.13468,-0.0062 l 0,0 z"
       id="path4822-8"
       style="fill:url(#linearGradient5360-0)" />
    <path
       d="m 194.88969,48.312867 c 0,0 0,0 0,0 l 0,0 0,0 0,0 c 0,0 0,0 0,0 z"
       id="path4824-7"
       style="fill:#be202e" />
    <path
       d="m 194.88969,48.312867 c 0,0 0,0 0,0 l 0,0 0,0 0,0 c 0,0 0,0 0,0 z"
       id="path4826-1"
       style="opacity:0.35;fill:#be202e" />
    <path
       d="m 194.88969,48.312867 c 0,0 0,0 0,0 l 0,0 0,0 0,0 c 0,0 0,0 0,0 z"
       id="path4837-7"
       style="fill:url(#linearGradient5362-6)" />
  </g>
</svg>
