<?xml version="1.0" encoding="UTF-8" standalone="no"?>
<svg
   xmlns:dc="http://purl.org/dc/elements/1.1/"
   xmlns:cc="http://creativecommons.org/ns#"
   xmlns:rdf="http://www.w3.org/1999/02/22-rdf-syntax-ns#"
   xmlns:svg="http://www.w3.org/2000/svg"
   xmlns="http://www.w3.org/2000/svg"
   xmlns:sodipodi="http://sodipodi.sourceforge.net/DTD/sodipodi-0.dtd"
   xmlns:inkscape="http://www.inkscape.org/namespaces/inkscape"
   viewBox="0 0 64 63.999999"
   id="svg2"
   version="1.1"
   inkscape:version="0.91 r"
   sodipodi:docname="Maven.svg"
   width="64"
   height="64">
  <metadata
     id="metadata16">
    <rdf:RDF>
      <cc:Work
         rdf:about="">
        <dc:format>image/svg+xml</dc:format>
        <dc:type
           rdf:resource="http://purl.org/dc/dcmitype/StillImage" />
        <dc:title></dc:title>
      </cc:Work>
    </rdf:RDF>
  </metadata>
  <defs
     id="defs14" />
  <sodipodi:namedview
     pagecolor="#ffffff"
     bordercolor="#666666"
     borderopacity="1"
     objecttolerance="10"
     gridtolerance="10"
     guidetolerance="10"
     inkscape:pageopacity="0"
     inkscape:pageshadow="2"
     inkscape:window-width="2048"
     inkscape:window-height="1128"
     id="namedview12"
     showgrid="false"
     fit-margin-top="0"
     fit-margin-left="0"
     fit-margin-right="0"
     fit-margin-bottom="0"
     inkscape:zoom="2.7792208"
     inkscape:cx="71.884834"
     inkscape:cy="17.931688"
     inkscape:window-x="0"
     inkscape:window-y="24"
     inkscape:window-maximized="1"
     inkscape:current-layer="svg2" />
  <path
     inkscape:connector-curvature="0"
     id="path4157"
     style="font-style:oblique;font-weight:bold;font-size:medium;font-family:Verdana;word-spacing:0;fill:#ff6804"
     d="m 40.1875,34.125 q -3.75,0.3125 -7.03125,0.742187 -3.28125,0.429688 -5.58594,1.25 -2.38281,0.859375 -3.63281,2.421875 -1.25,1.5625 -1.25,4.140625 0,2.265625 1.64062,3.203125 1.67969,0.898438 4.84375,0.898438 2.07031,0 4.41406,-0.9375 2.38282,-0.976563 4.45313,-2.460938 L 40.1875,34.125 Z M 36.47656,50.179687 Q 35.14843,51.039062 33.27343,52.25 31.39843,53.460937 29.79687,54.164062 27.60937,55.0625 25.69531,55.53125 23.78125,56 20.38281,56 14.91406,56 11.4375,52.953125 8,49.867187 8,44.945312 8,39.75 10.46093,36.15625 q 2.46094,-3.632813 7.30469,-5.78125 4.53125,-2.03125 10.78125,-2.929688 6.28906,-0.898437 13.59375,-1.328125 0.0391,-0.234375 0.15625,-0.742187 0.11719,-0.546875 0.11719,-1.210938 0,-2.773436 -2.57813,-3.867186 -2.57812,-1.132813 -7.69531,-1.132813 -3.47656,0 -7.69531,1.171875 -4.17969,1.171875 -6.28906,1.953124 l -1.28907,0 2.07032,-10.390625 q 2.46093,-0.625 7.61718,-1.40625 5.15625,-0.78125 10.27344,-0.78125 10.3125,0 15.11719,2.695314 4.84375,2.695311 4.84375,8.359375 0,0.78125 -0.15625,2.031249 -0.11719,1.25 -0.35156,2.1875 l -6.875,29.84375 -13.98438,0 1.05469,-4.648438 z" />
</svg>
