<?xml version="1.0" encoding="UTF-8" standalone="no"?>
<!-- Created with Inkscape (http://www.inkscape.org/) -->

<svg
   xmlns:dc="http://purl.org/dc/elements/1.1/"
   xmlns:cc="http://creativecommons.org/ns#"
   xmlns:rdf="http://www.w3.org/1999/02/22-rdf-syntax-ns#"
   xmlns:svg="http://www.w3.org/2000/svg"
   xmlns="http://www.w3.org/2000/svg"
   xmlns:xlink="http://www.w3.org/1999/xlink"
   xmlns:sodipodi="http://sodipodi.sourceforge.net/DTD/sodipodi-0.dtd"
   xmlns:inkscape="http://www.inkscape.org/namespaces/inkscape"
   width="64px"
   height="64px"
   id="svg2126"
   sodipodi:version="0.32"
   inkscape:version="0.48.1 r9760"
   sodipodi:docname="OpenFile.svg"
   inkscape:export-filename="/home/tamara/art/gate/icons/gate-open-file.png"
   inkscape:export-xdpi="90.000000"
   inkscape:export-ydpi="90.000000"
   version="1.1">
  <defs
     id="defs2128">
    <linearGradient
       inkscape:collect="always"
       id="linearGradient2164">
      <stop
         style="stop-color:#ff6100;stop-opacity:1;"
         offset="0"
         id="stop2166" />
      <stop
         style="stop-color:#ff6100;stop-opacity:0;"
         offset="1"
         id="stop2168" />
    </linearGradient>
    <linearGradient
       inkscape:collect="always"
       xlink:href="#linearGradient2164"
       id="linearGradient3019"
       gradientUnits="userSpaceOnUse"
       x1="-30.031288"
       y1="-25.226448"
       x2="-49.839989"
       y2="1.8180799" />
  </defs>
  <sodipodi:namedview
     id="base"
     pagecolor="#ffffff"
     bordercolor="#666666"
     borderopacity="1.0"
     inkscape:pageopacity="0.0"
     inkscape:pageshadow="2"
     inkscape:zoom="5.5"
     inkscape:cx="32"
     inkscape:cy="36.100343"
     inkscape:current-layer="layer1"
     showgrid="true"
     inkscape:document-units="px"
     inkscape:grid-bbox="true"
     inkscape:window-width="2048"
     inkscape:window-height="1075"
     inkscape:window-x="0"
     inkscape:window-y="24"
     inkscape:window-maximized="1" />
  <metadata
     id="metadata2131">
    <rdf:RDF>
      <cc:Work
         rdf:about="">
        <dc:format>image/svg+xml</dc:format>
        <dc:type
           rdf:resource="http://purl.org/dc/dcmitype/StillImage" />
      </cc:Work>
    </rdf:RDF>
  </metadata>
  <g
     id="layer1"
     inkscape:label="Layer 1"
     inkscape:groupmode="layer">
    <g
       id="g3008"
       transform="matrix(0.9666919,0,0,0.9666919,0.13174408,1.0722115)">
      <rect
         transform="matrix(-0.880954,-0.473203,0.365772,-0.930705,0,0)"
         y="-33.636616"
         x="-65.685974"
         height="40.721622"
         width="48.274662"
         id="rect2134"
         style="fill:#ff6100;fill-opacity:1;fill-rule:evenodd;stroke:#000000;stroke-width:1.18899369;stroke-miterlimit:4;stroke-opacity:1;stroke-dasharray:none" />
      <rect
         transform="matrix(-0.882966,-0.469436,0.49617,-0.868225,0,0)"
         y="-33.983269"
         x="-70.216835"
         height="36.089561"
         width="48.297787"
         id="rect2136"
         style="fill:#f5b086;fill-opacity:1;fill-rule:evenodd;stroke:#000000;stroke-width:1.11959708;stroke-miterlimit:4;stroke-opacity:1;stroke-dasharray:none" />
      <rect
         transform="matrix(-0.882966,-0.469436,0.49617,-0.868225,0,0)"
         y="-33.773247"
         x="-70.547493"
         height="36.089527"
         width="48.297718"
         id="rect2154"
         style="fill:url(#linearGradient3019);fill-opacity:1;fill-rule:evenodd;stroke:#000000;stroke-width:1.11959565;stroke-miterlimit:4;stroke-opacity:1;stroke-dasharray:none" />
      <rect
         transform="matrix(0.877779,0.479065,-0.437943,0.899003,0,0)"
         y="19.323244"
         x="21.096359"
         height="4.8835106"
         width="47.253204"
         id="rect2174"
         style="fill:#f5b086;fill-opacity:1;fill-rule:evenodd;stroke:#000000;stroke-width:0.96075296;stroke-miterlimit:4;stroke-opacity:1;stroke-dasharray:none" />
      <g
         id="text2176"
         style="font-size:11.99999046px;font-style:normal;font-weight:normal;fill:#000000;fill-opacity:1;stroke:none;font-family:Bitstream Vera Sans"
         transform="matrix(0.881872,0.471488,-0.471488,0.881872,0,0)">
        <path
           id="path2993"
           d="m 44.939803,9.99171 5.02734,0 0,0.996093 -3.843747,0 0,2.578123 3.468747,0 0,0.996093 -3.468747,0 0,4.177731 -1.183593,0 0,-8.74804"
           inkscape:connector-curvature="0" />
        <path
           id="path2995"
           d="m 51.85386,9.99171 1.183593,0 0,8.74804 -1.183593,0 0,-8.74804"
           inkscape:connector-curvature="0" />
        <path
           id="path2997"
           d="m 55.39292,9.99171 1.183592,0 0,7.751947 4.259763,0 0,0.996093 -5.443355,0 0,-8.74804"
           inkscape:connector-curvature="0" />
        <path
           id="path2999"
           d="m 62.072602,9.99171 5.531246,0 0,0.996093 -4.347653,0 0,2.589842 4.166012,0 0,0.996093 -4.166012,0 0,3.169919 4.453122,0 0,0.996093 -5.636715,0 0,-8.74804"
           inkscape:connector-curvature="0" />
      </g>
    </g>
  </g>
</svg>
