<?xml version="1.0" encoding="UTF-8" standalone="no"?>
<!-- Generator: Adobe Illustrator 19.0.0, SVG Export Plug-In . SVG Version: 6.00 Build 0)  -->

<svg
   xmlns:dc="http://purl.org/dc/elements/1.1/"
   xmlns:cc="http://creativecommons.org/ns#"
   xmlns:rdf="http://www.w3.org/1999/02/22-rdf-syntax-ns#"
   xmlns:svg="http://www.w3.org/2000/svg"
   xmlns="http://www.w3.org/2000/svg"
   xmlns:sodipodi="http://sodipodi.sourceforge.net/DTD/sodipodi-0.dtd"
   xmlns:inkscape="http://www.inkscape.org/namespaces/inkscape"
   version="1.1"
   id="Layer_1"
   x="0px"
   y="0px"
   viewBox="0 0 48 48"
   xml:space="preserve"
   inkscape:version="0.91 r13725"
   sodipodi:docname="pin.svg"
   width="48"
   height="48"><metadata
     id="metadata51"><rdf:RDF><cc:Work
         rdf:about=""><dc:format>image/svg+xml</dc:format><dc:type
           rdf:resource="http://purl.org/dc/dcmitype/StillImage" /><dc:title></dc:title></cc:Work></rdf:RDF></metadata><defs
     id="defs49" /><sodipodi:namedview
     pagecolor="#ffffff"
     bordercolor="#666666"
     borderopacity="1"
     objecttolerance="10"
     gridtolerance="10"
     guidetolerance="10"
     inkscape:pageopacity="0"
     inkscape:pageshadow="2"
     inkscape:window-width="3070"
     inkscape:window-height="1752"
     id="namedview47"
     showgrid="false"
     fit-margin-top="0"
     fit-margin-left="0"
     fit-margin-right="0"
     fit-margin-bottom="0"
     inkscape:zoom="33.913045"
     inkscape:cx="22.821641"
     inkscape:cy="20.641023"
     inkscape:window-x="130"
     inkscape:window-y="48"
     inkscape:window-maximized="1"
     inkscape:current-layer="Layer_1" /><g
     id="g4187"
     transform="matrix(0.09134901,0,0,0.09134901,0.15568939,0.74999283)"><path
       style="fill:#a31c09"
       d="M 505.605,190.556 C 491.816,204.345 438.718,173.607 387.006,121.895 335.294,70.183 304.556,17.085 318.345,3.296 c 13.789,-13.789 66.887,16.949 118.599,68.661 51.712,51.712 82.45,104.811 68.661,118.599"
       id="path5"
       inkscape:connector-curvature="0" /><polygon
       transform="translate(9.2426903,-5.3367192)"
       style="fill:#d9dbe8"
       points="112.358,346.605 162.295,396.543 0,508.9 "
       id="polygon7" /><path
       style="fill:#ce3929"
       d="M 387.007,121.894 C 335.295,70.182 304.557,17.084 318.346,3.295 c -49.991,49.991 -39.23,123.065 12.482,174.777 51.712,51.712 121.671,65.589 171.652,15.607 l -0.786,-0.821 c -18.069,6.577 -66.93,-23.207 -114.687,-70.964"
       id="path9"
       inkscape:connector-curvature="0" /><path
       id="SVGCleanerId_0"
       style="fill:#a31c09"
       d="m 342.08,279.177 58.606,-58.606 c -24.594,-6.727 -48.746,-21.389 -69.853,-42.496 -21.116,-21.116 -35.257,-45.789 -41.366,-70.991 l -59.727,59.719 -48.719,48.719 c 6.118,25.212 22.581,47.554 43.697,68.661 21.107,21.116 44.067,36.97 68.661,43.697 l 48.701,-48.703 z"
       inkscape:connector-curvature="0" /><path
       inkscape:connector-curvature="0"
       d="m 342.08,279.177 58.606,-58.606 c -24.594,-6.727 -48.746,-21.389 -69.853,-42.496 -21.116,-21.116 -35.257,-45.789 -41.366,-70.991 l -59.727,59.719 -48.719,48.719 c 6.118,25.212 22.581,47.554 43.697,68.661 21.107,21.116 44.067,36.97 68.661,43.697 l 48.701,-48.703 z"
       style="fill:#a31c09"
       id="SVGCleanerId_0_1_" /><path
       style="fill:#ce3929"
       d="m 311.324,389.978 c 2.348,-21.486 -1.607,-44.226 -11.829,-68.22 l -6.118,6.126 C 268.783,321.149 245.823,305.294 224.716,284.187 203.6,263.08 187.137,240.729 181.019,215.526 l 6.241,-6.241 -0.274,-0.282 c -24.143,-10.346 -47.016,-14.345 -68.626,-11.979 -40.157,4.378 -64.071,45.877 -47.634,82.785 12.509,28.072 35.566,60.734 66.322,91.489 30.746,30.747 63.417,53.813 91.489,66.313 36.901,16.437 78.4,-7.477 82.787,-47.633"
       id="path15"
       inkscape:connector-curvature="0" /><g
       id="g17" /><g
       id="g19" /><g
       id="g21" /><g
       id="g23" /><g
       id="g25" /><g
       id="g27" /><g
       id="g29" /><g
       id="g31" /><g
       id="g33" /><g
       id="g35" /><g
       id="g37" /><g
       id="g39" /><g
       id="g41" /><g
       id="g43" /><g
       id="g45" /></g></svg>