<?xml version="1.0" encoding="UTF-8" standalone="no"?>
<!-- Generator: Adobe Illustrator 19.0.0, SVG Export Plug-In . SVG Version: 6.00 Build 0)  -->

<svg
   xmlns:dc="http://purl.org/dc/elements/1.1/"
   xmlns:cc="http://creativecommons.org/ns#"
   xmlns:rdf="http://www.w3.org/1999/02/22-rdf-syntax-ns#"
   xmlns:svg="http://www.w3.org/2000/svg"
   xmlns="http://www.w3.org/2000/svg"
   xmlns:sodipodi="http://sodipodi.sourceforge.net/DTD/sodipodi-0.dtd"
   xmlns:inkscape="http://www.inkscape.org/namespaces/inkscape"
   version="1.1"
   id="Layer_1"
   x="0px"
   y="0px"
   viewBox="0 0 48 48"
   xml:space="preserve"
   inkscape:version="0.91 r13725"
   sodipodi:docname="PinIn.svg"
   width="48"
   height="48"><metadata
     id="metadata51"><rdf:RDF><cc:Work
         rdf:about=""><dc:format>image/svg+xml</dc:format><dc:type
           rdf:resource="http://purl.org/dc/dcmitype/StillImage" /><dc:title></dc:title></cc:Work></rdf:RDF></metadata><defs
     id="defs49" /><sodipodi:namedview
     pagecolor="#ffffff"
     bordercolor="#666666"
     borderopacity="1"
     objecttolerance="10"
     gridtolerance="10"
     guidetolerance="10"
     inkscape:pageopacity="0"
     inkscape:pageshadow="2"
     inkscape:window-width="3070"
     inkscape:window-height="1752"
     id="namedview47"
     showgrid="false"
     fit-margin-top="0"
     fit-margin-left="0"
     fit-margin-right="0"
     fit-margin-bottom="0"
     inkscape:zoom="23.980144"
     inkscape:cx="26.886631"
     inkscape:cy="20.925293"
     inkscape:window-x="130"
     inkscape:window-y="48"
     inkscape:window-maximized="1"
     inkscape:current-layer="Layer_1" /><path
     id="SVGCleanerId_0_1_"
     style="fill:#a31c09"
     d="m 28.023819,28.759078 5.832938,-3.572337 c -1.87989,-0.966564 -3.579927,-2.549947 -4.915254,-4.586596 -1.335896,-2.037519 -2.039559,-4.231122 -2.079854,-6.323656 l -5.944364,3.640038 -4.848905,2.969672 c 0.04085,2.093481 0.975776,4.144839 2.311835,6.181649 1.335164,2.037358 2.916564,3.693398 4.796454,4.659963 l 4.84715,-2.968733 z"
     inkscape:connector-curvature="0" /><path
     inkscape:connector-curvature="0"
     id="path5"
     d="M 42.866093,27.172581 C 41.288839,28.127844 36.962225,24.305407 33.202328,18.634388 29.442431,12.96337 27.673464,7.5918958 29.250718,6.636633 c 1.577253,-0.9552632 5.903868,2.8671736 9.663765,8.538192 3.759896,5.671019 5.528843,11.042584 3.95161,11.997756"
     style="fill:#a31c09" /><path
     inkscape:connector-curvature="0"
     d="m 28.023819,28.759078 5.832938,-3.572337 c -1.87989,-0.966564 -3.579927,-2.549947 -4.915254,-4.586596 -1.335896,-2.037519 -2.039559,-4.231122 -2.079854,-6.323656 l -5.944364,3.640038 -4.848905,2.969672 c 0.04085,2.093481 0.975776,4.144839 2.311835,6.181649 1.335164,2.037358 2.916564,3.693398 4.796454,4.659963 l 4.84715,-2.968733 z"
     style="fill:#a31c09"
     id="SVGCleanerId_0" /><path
     inkscape:connector-curvature="0"
     id="path9"
     d="M 33.312961,18.588862 C 29.548697,12.931026 27.777673,7.5720378 29.356759,6.6189952 23.631899,10.07418 23.11522,16.813812 26.879485,22.471649 c 3.764265,5.657837 10.02679,8.30602 15.750527,4.851438 l -0.05648,-0.08912 c -1.829472,0.223046 -5.784198,-3.419985 -9.260567,-8.645103"
     style="fill:#ce3929" /><path
     inkscape:connector-curvature="0"
     id="path15"
     d="m 23.511385,36.935229 c 0.580696,-1.649731 0.671088,-3.510174 0.274106,-5.580691 l -0.609058,0.373553 c -1.879744,-0.967195 -3.461126,-2.623315 -4.796452,-4.659964 -1.33606,-2.03681 -2.270827,-4.088876 -2.311837,-6.181648 l 0.621155,-0.380422 -0.01719,-0.02707 c -1.777561,-1.243452 -3.566831,-1.964681 -5.368705,-2.162393 -3.3480127,-0.368869 -6.0469712,2.473163 -5.3782638,5.670743 0.5091941,2.432187 1.7937322,5.413134 3.7395182,8.380754 1.9451156,2.966812 4.1861906,5.363153 6.2445026,6.845986 2.705575,1.949644 6.517042,0.804418 7.602224,-2.27885"
     style="fill:#ce3929" /><g
     id="g17"
     transform="matrix(0.08139633,0.01776827,-0.01813168,0.07872341,5.2417111,0.70314302)" /><g
     id="g19"
     transform="matrix(0.08139633,0.01776827,-0.01813168,0.07872341,5.2417111,0.70314302)" /><g
     id="g21"
     transform="matrix(0.08139633,0.01776827,-0.01813168,0.07872341,5.2417111,0.70314302)" /><g
     id="g23"
     transform="matrix(0.08139633,0.01776827,-0.01813168,0.07872341,5.2417111,0.70314302)" /><g
     id="g25"
     transform="matrix(0.08139633,0.01776827,-0.01813168,0.07872341,5.2417111,0.70314302)" /><g
     id="g27"
     transform="matrix(0.08139633,0.01776827,-0.01813168,0.07872341,5.2417111,0.70314302)" /><g
     id="g29"
     transform="matrix(0.08139633,0.01776827,-0.01813168,0.07872341,5.2417111,0.70314302)" /><g
     id="g31"
     transform="matrix(0.08139633,0.01776827,-0.01813168,0.07872341,5.2417111,0.70314302)" /><g
     id="g33"
     transform="matrix(0.08139633,0.01776827,-0.01813168,0.07872341,5.2417111,0.70314302)" /><g
     id="g35"
     transform="matrix(0.08139633,0.01776827,-0.01813168,0.07872341,5.2417111,0.70314302)" /><g
     id="g37"
     transform="matrix(0.08139633,0.01776827,-0.01813168,0.07872341,5.2417111,0.70314302)" /><g
     id="g39"
     transform="matrix(0.08139633,0.01776827,-0.01813168,0.07872341,5.2417111,0.70314302)" /><g
     id="g41"
     transform="matrix(0.08139633,0.01776827,-0.01813168,0.07872341,5.2417111,0.70314302)" /><g
     id="g43"
     transform="matrix(0.08139633,0.01776827,-0.01813168,0.07872341,5.2417111,0.70314302)" /><g
     id="g45"
     transform="matrix(0.08139633,0.01776827,-0.01813168,0.07872341,5.2417111,0.70314302)" /></svg>