<?xml version="1.0" encoding="UTF-8" standalone="no"?>
<!-- Created with Inkscape (http://www.inkscape.org/) -->
<svg
   xmlns:dc="http://purl.org/dc/elements/1.1/"
   xmlns:cc="http://web.resource.org/cc/"
   xmlns:rdf="http://www.w3.org/1999/02/22-rdf-syntax-ns#"
   xmlns:svg="http://www.w3.org/2000/svg"
   xmlns="http://www.w3.org/2000/svg"
   xmlns:xlink="http://www.w3.org/1999/xlink"
   xmlns:sodipodi="http://inkscape.sourceforge.net/DTD/sodipodi-0.dtd"
   xmlns:inkscape="http://www.inkscape.org/namespaces/inkscape"
   width="64px"
   height="64px"
   id="svg8765"
   sodipodi:version="0.32"
   inkscape:version="0.42"
   sodipodi:docbase="/home/tamara/art/gate/icons"
   sodipodi:docname="pr.svg"
   inkscape:export-filename="/home/tamara/art/gate/icons/pr.png"
   inkscape:export-xdpi="90.000000"
   inkscape:export-ydpi="90.000000">
  <defs
     id="defs8767">
    <linearGradient
       id="linearGradient10987">
      <stop
         style="stop-color:#ffad5d;stop-opacity:0.94117647;"
         offset="0.0000000"
         id="stop10989" />
      <stop
         style="stop-color:#ffad5d;stop-opacity:0;"
         offset="1"
         id="stop10991" />
    </linearGradient>
    <linearGradient
       inkscape:collect="always"
       xlink:href="#linearGradient10987"
       id="linearGradient10993"
       x1="41.272728"
       y1="20.000000"
       x2="9.0909090"
       y2="59.736179"
       gradientUnits="userSpaceOnUse" />
  </defs>
  <sodipodi:namedview
     id="base"
     pagecolor="#ffffff"
     bordercolor="#666666"
     borderopacity="1.0"
     inkscape:pageopacity="0.0"
     inkscape:pageshadow="2"
     inkscape:zoom="5.5000000"
     inkscape:cx="51.051948"
     inkscape:cy="17.865721"
     inkscape:current-layer="layer1"
     showgrid="false"
     inkscape:document-units="px"
     inkscape:grid-bbox="true"
     inkscape:window-width="753"
     inkscape:window-height="521"
     inkscape:window-x="305"
     inkscape:window-y="284" />
  <metadata
     id="metadata8770">
    <rdf:RDF>
      <cc:Work
         rdf:about="">
        <dc:format>image/svg+xml</dc:format>
        <dc:type
           rdf:resource="http://purl.org/dc/dcmitype/StillImage" />
      </cc:Work>
    </rdf:RDF>
  </metadata>
  <g
     id="layer1"
     inkscape:label="Layer 1"
     inkscape:groupmode="layer">
    <path
       style="opacity:1.0000000;fill:#ff6100;fill-opacity:1.0000000;fill-rule:evenodd;stroke:#000000;stroke-width:1.0130000;stroke-linejoin:round;stroke-miterlimit:4.0000000;stroke-dasharray:none;stroke-opacity:1.0000000"
       d="M 28.468750 2.4375000 C 16.604451 3.8048713 33.955151 11.502349 23.531250 17.187500 C 13.107349 22.872651 15.459059 4.4250823 8.0625000 13.562500 C 0.66594157 22.699918 18.524407 16.176405 15.281250 27.375000 C 12.038093 38.573596 0.31476407 23.913860 1.7187500 35.468750 C 3.1227360 47.023639 11.006366 30.129193 16.843750 40.281250 C 22.681134 50.433305 3.7429060 48.171337 13.125000 55.375000 C 22.507094 62.578663 15.845284 45.153920 27.343750 48.312500 C 38.842215 51.471078 23.791950 62.898621 35.656250 61.531250 C 47.520549 60.163879 30.138599 52.466403 40.562500 46.781250 C 50.986401 41.096099 48.665943 59.543666 56.062500 50.406250 C 63.459058 41.268832 45.569343 47.792347 48.812500 36.593750 C 52.055657 25.395154 63.810234 40.054889 62.406250 28.500000 C 61.002264 16.945111 53.087386 33.839555 47.250000 23.687500 C 41.412616 13.535445 60.350843 15.828663 50.968750 8.6250000 C 41.586656 1.4213371 48.279714 18.814829 36.781250 15.656250 C 25.282785 12.497672 40.333048 1.0701288 28.468750 2.4375000 z M 32.218750 20.687500 C 37.889297 20.687500 42.500000 25.571932 42.500000 31.593750 C 42.500000 37.615567 37.889295 42.500000 32.218750 42.500000 C 26.548206 42.500000 21.937500 37.615568 21.937500 31.593750 C 21.937500 25.571931 26.548205 20.687500 32.218750 20.687500 z "
       id="path8785" />
    <path
       style="opacity:1.0000000;fill:url(#linearGradient10993);fill-opacity:1.0;fill-rule:evenodd;stroke:none;stroke-width:1.0130000;stroke-linejoin:round;stroke-miterlimit:4.0000000;stroke-dasharray:none;stroke-opacity:1.0000000"
       d="M 26.281250,5.1875000 C 28.752837,9.4129574 30.668611,16.231963 24.687500,18.937500 C 19.257027,22.847934 13.780784,18.228525 11.437500,13.343750 C 4.8030590,17.289798 12.154485,18.145850 15.468750,20.281250 C 21.205274,26.088879 13.957686,37.375126 6.2187500,33.406250 C 0.42767537,32.149354 4.9767255,41.272170 8.9375000,35.718750 C 17.701716,31.739937 24.468255,47.237877 15.024176,50.562270 C 8.8796337,51.791163 18.608455,58.448064 17.804269,51.932966 C 19.571841,42.031953 36.754059,46.338975 33.531710,55.850884 C 29.526874,62.012350 42.128443,60.154460 35.886823,55.086146 C 31.061391,45.982043 47.796381,39.073554 51.031250,49.000000 C 54.560746,53.776648 57.591418,44.060244 50.437500,45.343750 C 41.580244,41.364502 48.918991,26.233016 57.687500,30.937500 C 63.697017,31.879805 58.626364,22.950743 54.531250,28.781250 C 45.513707,32.101758 39.671069,16.484498 49.312500,13.500000 C 54.241395,10.570394 44.437857,7.0738743 45.625000,13.750000 C 42.035551,22.915360 26.030987,16.223939 30.718750,7.0625000 C 32.857007,3.0065160 28.174741,4.9233524 26.281250,5.1875000 z M 32.531250,18.906250 C 44.647602,19.098746 48.686908,37.326161 38.086877,42.864265 C 28.453201,49.290664 16.283083,37.266753 20.687500,27.156250 C 22.603733,22.257125 27.208277,18.852964 32.531250,18.906250 z "
       id="path8802" />
    <path
       sodipodi:type="arc"
       style="opacity:1.0000000;fill:#000000;fill-opacity:1.0000000;fill-rule:evenodd;stroke:none;stroke-width:1.0130000;stroke-linejoin:round;stroke-miterlimit:4.0000000;stroke-dasharray:none;stroke-opacity:1.0000000"
       id="path10995"
       sodipodi:cx="32.454544"
       sodipodi:cy="31.636364"
       sodipodi:rx="3.0000000"
       sodipodi:ry="3.0909090"
       d="M 35.454544 31.636364 A 3.0000000 3.0909090 0 1 1  29.454544,31.636364 A 3.0000000 3.0909090 0 1 1  35.454544 31.636364 z"
       transform="matrix(0.844092,1.037574,-1.071672,0.817236,38.87282,-28.25564)" />
  </g>
</svg>
